<svg width="69" height="55" viewBox="0 0 69 55" fill="none" xmlns="http://www.w3.org/2000/svg">
<g id="Component 1">
<path id="Vector" d="M68.9998 27.5C68.9998 20.2066 66.0919 13.2118 60.9157 8.05456C55.7396 2.89732 48.7193 9.56421e-07 41.3993 0C34.0792 -9.56419e-07 27.0589 2.89732 21.8828 8.05456C16.7066 13.2118 13.7987 20.2066 13.7987 27.5H22.424C25.2821 27.5 27.5112 25.1135 28.5581 22.4636C29.2454 20.7239 30.2883 19.125 31.6409 17.7772C34.229 15.1986 37.7392 13.75 41.3993 13.75C45.0593 13.75 48.5695 15.1986 51.1576 17.7772C53.7457 20.3559 55.1995 23.8533 55.1995 27.5H68.9998Z" fill="url(#paint0_linear_1076_1040)"/>
<path id="Vector_2" d="M53.1001 38.0237C54.4872 34.6872 55.2012 31.1113 55.2012 27.5H69C69 42.6878 56.6427 54.9998 41.3994 54.9998C39.0122 54.9998 36.6957 54.6979 34.4866 54.1303C35.7365 53.8094 36.965 53.4008 38.1628 52.9066C41.5115 51.5245 44.5541 49.499 47.1171 46.9454C49.6801 44.3917 51.7132 41.3602 53.1001 38.0237Z" fill="#FBCF8E"/>
<path id="Vector_3" d="M0 27.5C-5.18525e-07 31.1114 0.713909 34.6874 2.10096 38.0239C3.48803 41.3604 5.52106 44.3919 8.08401 46.9456C10.647 49.499 13.6896 51.5247 17.0383 52.9068C20.3869 54.2888 23.9759 55 27.6006 55C31.225 55 34.8141 54.2888 38.1628 52.9068C41.5115 51.5247 44.5541 49.499 47.1171 46.9456C49.68 44.3919 51.713 41.3604 53.1001 38.0239C54.4872 34.6874 55.2012 31.1114 55.2012 27.5H46.5758C43.7177 27.5 41.4887 29.8865 40.4418 32.5362C40.4121 32.6117 40.3815 32.6869 40.3503 32.762C39.6568 34.4302 38.6403 35.946 37.3587 37.2228C36.0773 38.4995 34.5559 39.5125 32.8817 40.2035C31.2074 40.8945 29.4129 41.2501 27.6006 41.2501C25.7883 41.2501 23.9937 40.8945 22.3195 40.2035C20.6451 39.5125 19.1238 38.4995 17.8422 37.2228C16.5608 35.946 15.5443 34.4302 14.8508 32.762C14.1572 31.0937 13.8003 29.3057 13.8003 27.5H0Z" fill="url(#paint1_linear_1076_1040)"/>
<path id="Vector_4" d="M0.00280762 27.5C0.00280762 12.3121 12.36 0 27.6032 0C29.9899 0 32.3057 0.301802 34.5146 0.869216C29.775 2.08575 25.4027 4.5477 21.8828 8.05457C16.7068 13.2118 13.7989 20.2066 13.7989 27.5H0.00280762Z" fill="#93E4DB"/>
</g>
<defs>
<linearGradient id="paint0_linear_1076_1040" x1="68.9998" y1="13.75" x2="13.7987" y2="13.75" gradientUnits="userSpaceOnUse">
<stop stop-color="#93E4DB"/>
<stop offset="1" stop-color="#2E6C76"/>
</linearGradient>
<linearGradient id="paint1_linear_1076_1040" x1="1.80969e-06" y1="41.2501" x2="55.2012" y2="41.2501" gradientUnits="userSpaceOnUse">
<stop stop-color="#FBDC8E"/>
<stop offset="1" stop-color="#FB958E"/>
</linearGradient>
</defs>
</svg>
