<svg width="21" height="21" viewBox="0 0 21 21" fill="none" xmlns="http://www.w3.org/2000/svg">
<g id="logos:telegram" clip-path="url(#clip0_1076_2626)">
<path id="Vector" d="M10.5 0C7.71586 0 5.04328 1.10693 3.07617 3.07535C1.10703 5.04455 0.000545458 7.71517 0 10.5C0 13.2836 1.10742 15.9562 3.07617 17.9246C5.04328 19.8931 7.71586 21 10.5 21C13.2841 21 15.9567 19.8931 17.9238 17.9246C19.8926 15.9562 21 13.2836 21 10.5C21 7.71635 19.8926 5.04377 17.9238 3.07535C15.9567 1.10693 13.2841 0 10.5 0Z" fill="url(#paint0_linear_1076_2626)"/>
<path id="Vector_2" d="M4.7525 10.389C7.8139 9.05554 9.85484 8.17633 10.8753 7.75157C13.7923 6.53866 14.3977 6.328 14.7931 6.32086C14.8801 6.31947 15.0737 6.34096 15.2 6.44309C15.305 6.52922 15.3345 6.64571 15.3493 6.72749C15.3624 6.8092 15.3805 6.99541 15.3657 7.14077C15.2082 8.80108 14.5241 12.8301 14.1762 14.6898C14.0302 15.4766 13.7398 15.7404 13.4593 15.7662C12.849 15.8223 12.3863 15.3632 11.7957 14.9762C10.872 14.3703 10.3503 13.9933 9.45289 13.4022C8.41601 12.7191 9.08867 12.3435 9.67929 11.7299C9.83351 11.5693 12.5209 9.12559 12.5717 8.90394C12.5783 8.87622 12.5848 8.77286 12.5225 8.71839C12.4618 8.66376 12.3716 8.68246 12.3059 8.69723C12.2124 8.71823 10.7375 9.69407 7.87625 11.6246C7.45789 11.9124 7.0789 12.0526 6.73765 12.0452C6.36359 12.0372 5.64172 11.8333 5.10523 11.659C4.44898 11.4453 3.92562 11.3322 3.97156 10.9692C3.99453 10.7802 4.25539 10.5867 4.7525 10.389Z" fill="white"/>
</g>
<defs>
<linearGradient id="paint0_linear_1076_2626" x1="1050" y1="0" x2="1050" y2="2100" gradientUnits="userSpaceOnUse">
<stop stop-color="#2AABEE"/>
<stop offset="1" stop-color="#229ED9"/>
</linearGradient>
<clipPath id="clip0_1076_2626">
<rect width="21" height="21" fill="white"/>
</clipPath>
</defs>
</svg>
