<svg width="15" height="15" viewBox="0 0 15 15" fill="none" xmlns="http://www.w3.org/2000/svg">
<g id="ant-design:like-outlined">
<path id="Vector" d="M12.9771 7.81788C13.2231 7.49269 13.3594 7.09425 13.3594 6.6797C13.3594 6.02198 12.9917 5.39942 12.3999 5.05226C12.2476 4.96289 12.0741 4.91586 11.8975 4.91603H8.38477L8.47266 3.11573C8.49316 2.68067 8.33936 2.26759 8.04053 1.95265C7.89388 1.79742 7.71695 1.67391 7.52068 1.58975C7.32441 1.5056 7.11296 1.4626 6.89941 1.46339C6.1377 1.46339 5.46387 1.97609 5.26172 2.70997L4.00342 7.26564H2.10938C1.8501 7.26564 1.64062 7.47511 1.64062 7.73439V13.0664C1.64062 13.3257 1.8501 13.5352 2.10938 13.5352H10.9175C11.0522 13.5352 11.1841 13.5088 11.3057 13.4561C12.0029 13.1587 12.4526 12.4775 12.4526 11.7217C12.4526 11.5371 12.4263 11.3555 12.3735 11.1797C12.6196 10.8545 12.7559 10.4561 12.7559 10.0415C12.7559 9.85694 12.7295 9.6753 12.6768 9.49952C12.9229 9.17433 13.0591 8.77589 13.0591 8.36134C13.0562 8.17677 13.0298 7.99366 12.9771 7.81788ZM2.69531 12.4805V8.32032H3.88184V12.4805H2.69531ZM12.0176 7.30958L11.6968 7.5879L11.9004 7.95997C11.9675 8.08254 12.0023 8.22016 12.0015 8.35987C12.0015 8.60157 11.896 8.83155 11.7144 8.98976L11.3936 9.26808L11.5972 9.64015C11.6642 9.76271 11.699 9.90033 11.6982 10.04C11.6982 10.2817 11.5928 10.5117 11.4111 10.6699L11.0903 10.9483L11.2939 11.3203C11.361 11.4429 11.3958 11.5805 11.395 11.7202C11.395 12.0483 11.2017 12.3442 10.9028 12.479H4.81934V8.27345L6.27686 2.99269C6.31444 2.85734 6.39512 2.73792 6.50666 2.65254C6.61821 2.56717 6.75455 2.52047 6.89502 2.51954C7.00635 2.51954 7.11621 2.55177 7.2041 2.61769C7.34912 2.72608 7.42676 2.89015 7.41797 3.06446L7.27734 5.97071H11.8828C12.1436 6.13038 12.3047 6.39991 12.3047 6.6797C12.3047 6.9214 12.1992 7.14991 12.0176 7.30958Z" fill="#195964"/>
</g>
</svg>
