<svg width="33" height="32" viewBox="0 0 33 32" fill="none" xmlns="http://www.w3.org/2000/svg">
<path id="Vector" fill-rule="evenodd" clip-rule="evenodd" d="M0 6.38762C0.000188808 7.8073 0.471947 9.1867 1.34118 10.3092C2.21041 11.4316 3.42786 12.2336 4.80232 12.589V19.3955C3.29681 19.7889 1.98593 20.7167 1.11446 22.0058C0.242984 23.295 -0.129508 24.8572 0.0665361 26.4008C0.26258 27.9445 1.01376 29.364 2.1798 30.3944C3.34585 31.4247 4.84705 31.9955 6.40309 32C7.96267 32.0015 9.4692 31.4338 10.6399 30.4034C11.8106 29.373 12.565 27.9508 12.7615 26.4036C12.958 24.8565 12.5831 23.2908 11.7071 22.0005C10.8311 20.7101 9.51432 19.7839 8.00387 19.3955V12.589C9.1113 12.3021 10.1219 11.7242 10.9308 10.9153C11.7397 10.1064 12.3176 9.09583 12.6045 7.98839H16.0205C17.9607 7.98839 19.4158 8.08924 20.5219 8.32135C21.6136 8.55187 22.2572 8.88803 22.6782 9.28662C23.5346 10.0982 24.0116 11.683 24.0116 15.4736V19.3955C22.5061 19.7889 21.1952 20.7167 20.3237 22.0058C19.4523 23.295 19.0798 24.8572 19.2758 26.4008C19.4719 27.9445 20.223 29.364 21.3891 30.3944C22.5551 31.4247 24.0563 31.9955 25.6124 32C27.172 32.0015 28.6785 31.4338 29.8492 30.4034C31.0199 29.373 31.7743 27.9508 31.9708 26.4036C32.1673 24.8565 31.7923 23.2908 30.9164 22.0005C30.0404 20.7101 28.7236 19.7839 27.2132 19.3955V15.4736C27.2132 11.7822 26.845 8.8224 24.8792 6.9623C23.8883 6.02425 22.6285 5.49279 21.1814 5.18864C19.7487 4.8877 18.0295 4.78685 16.0205 4.78685H12.6045C12.2111 3.28134 11.2833 1.97046 9.99415 1.09899C8.70504 0.22751 7.1428 -0.144981 5.59915 0.0510625C4.0555 0.247106 2.63597 0.998283 1.60562 2.16433C0.575269 3.33038 0.00453979 4.83158 0 6.38762Z" fill="#195964"/>
</svg>
