<svg width="64" height="64" viewBox="0 0 64 64" fill="none" xmlns="http://www.w3.org/2000/svg">
<rect width="63.9992" height="64" rx="8" fill="#C4D7DA"/>
<path fill-rule="evenodd" clip-rule="evenodd" d="M31.9992 46.4001C31.9992 45.9757 32.1678 45.5688 32.4679 45.2688C32.7679 44.9687 33.1748 44.8001 33.5992 44.8001H46.3986C46.8229 44.8001 47.2298 44.9687 47.5299 45.2688C47.8299 45.5688 47.9985 45.9757 47.9985 46.4001C47.9985 46.8244 47.8299 47.2313 47.5299 47.5314C47.2298 47.8314 46.8229 48 46.3986 48H33.5992C33.1748 48 32.7679 47.8314 32.4679 47.5314C32.1678 47.2313 31.9992 46.8244 31.9992 46.4001ZM46.037 25.7611C48.6129 23.1756 48.5025 19.7805 46.5794 17.7006C46.0954 17.1774 45.5109 16.7572 44.8607 16.4652C44.2105 16.1732 43.5081 16.0155 42.7955 16.0015C41.2772 15.9663 39.7061 16.5455 38.255 17.7598C38.2177 17.7907 38.182 17.8233 38.1478 17.8574L17.3983 38.69C16.5019 39.5905 15.999 40.8097 16 42.0803V44.789C16 46.5505 17.4271 48 19.2063 48H21.8925C22.5243 47.9999 23.1499 47.875 23.7333 47.6326C24.3167 47.3901 24.8465 47.0349 25.2924 46.5873L46.037 25.7611ZM40.3301 22.07C40.1825 21.9172 40.0059 21.7953 39.8107 21.7115C39.6155 21.6276 39.4056 21.5835 39.1931 21.5816C38.9807 21.5798 38.77 21.6203 38.5734 21.7007C38.3768 21.7812 38.1982 21.9 38.0479 22.0502C37.8977 22.2004 37.7789 22.3791 37.6985 22.5757C37.618 22.7723 37.5775 22.983 37.5794 23.1954C37.5812 23.4079 37.6254 23.6178 37.7092 23.813C37.7931 24.0082 37.915 24.1847 38.0678 24.3323L39.6677 25.9322C39.8153 26.0851 39.9918 26.2069 40.187 26.2908C40.3822 26.3746 40.5922 26.4188 40.8046 26.4206C41.017 26.4225 41.2277 26.382 41.4243 26.3015C41.621 26.2211 41.7996 26.1023 41.9498 25.9521C42.1 25.8019 42.2188 25.6232 42.2993 25.4266C42.3797 25.23 42.4202 25.0193 42.4184 24.8069C42.4165 24.5944 42.3724 24.3845 42.2885 24.1893C42.2047 23.9941 42.0828 23.8175 41.93 23.67L40.3301 22.07Z" fill="#195964"/>
</svg>
