<svg width="20" height="17" viewBox="0 0 20 17" fill="none" xmlns="http://www.w3.org/2000/svg">
<g id="fa:group" clip-path="url(#clip0_564_5076)">
<path id="Vector" d="M6.17708 8.5C5.05208 8.53162 4.13194 8.93638 3.41667 9.71429H2.02083C1.45139 9.71429 0.972222 9.58622 0.583333 9.33008C0.194444 9.07394 0 8.69922 0 8.20592C0 5.9734 0.430556 4.85714 1.29167 4.85714C1.33333 4.85714 1.48438 4.92355 1.74479 5.05636C2.00521 5.18917 2.34375 5.32357 2.76042 5.45954C3.17708 5.59552 3.59028 5.6635 4 5.6635C4.46528 5.6635 4.92708 5.59077 5.38542 5.44531C5.35069 5.67932 5.33333 5.88802 5.33333 6.07143C5.33333 6.95052 5.61458 7.76004 6.17708 8.5ZM17.3333 14.543C17.3333 15.3019 17.0799 15.9011 16.5729 16.3407C16.066 16.7802 15.3924 17 14.5521 17H5.44792C4.60764 17 3.93403 16.7802 3.42708 16.3407C2.92014 15.9011 2.66667 15.3019 2.66667 14.543C2.66667 14.2078 2.67882 13.8805 2.70312 13.5611C2.72743 13.2417 2.77604 12.897 2.84896 12.5271C2.92188 12.1571 3.01389 11.814 3.125 11.4978C3.23611 11.1815 3.38542 10.8732 3.57292 10.5728C3.76042 10.2724 3.97569 10.0163 4.21875 9.80441C4.46181 9.59254 4.75868 9.42336 5.10938 9.29688C5.46007 9.17039 5.84722 9.10714 6.27083 9.10714C6.34028 9.10714 6.48958 9.17513 6.71875 9.3111C6.94792 9.44708 7.20139 9.59887 7.47917 9.76646C7.75694 9.93406 8.12847 10.0858 8.59375 10.2218C9.05903 10.3578 9.52778 10.4258 10 10.4258C10.4722 10.4258 10.941 10.3578 11.4062 10.2218C11.8715 10.0858 12.2431 9.93406 12.5208 9.76646C12.7986 9.59887 13.0521 9.44708 13.2812 9.3111C13.5104 9.17513 13.6597 9.10714 13.7292 9.10714C14.1528 9.10714 14.5399 9.17039 14.8906 9.29688C15.2413 9.42336 15.5382 9.59254 15.7812 9.80441C16.0243 10.0163 16.2396 10.2724 16.4271 10.5728C16.6146 10.8732 16.7639 11.1815 16.875 11.4978C16.9861 11.814 17.0781 12.1571 17.151 12.5271C17.224 12.897 17.2726 13.2417 17.2969 13.5611C17.3212 13.8805 17.3333 14.2078 17.3333 14.543ZM6.66667 2.42857C6.66667 3.09896 6.40625 3.67132 5.88542 4.14565C5.36458 4.61998 4.73611 4.85714 4 4.85714C3.26389 4.85714 2.63542 4.61998 2.11458 4.14565C1.59375 3.67132 1.33333 3.09896 1.33333 2.42857C1.33333 1.75818 1.59375 1.18583 2.11458 0.711496C2.63542 0.237165 3.26389 0 4 0C4.73611 0 5.36458 0.237165 5.88542 0.711496C6.40625 1.18583 6.66667 1.75818 6.66667 2.42857ZM14 6.07143C14 7.07701 13.6094 7.93555 12.8281 8.64704C12.0469 9.35854 11.1042 9.71429 10 9.71429C8.89583 9.71429 7.95312 9.35854 7.17188 8.64704C6.39062 7.93555 6 7.07701 6 6.07143C6 5.06585 6.39062 4.20731 7.17188 3.49581C7.95312 2.78432 8.89583 2.42857 10 2.42857C11.1042 2.42857 12.0469 2.78432 12.8281 3.49581C13.6094 4.20731 14 5.06585 14 6.07143ZM20 8.20592C20 8.69922 19.8056 9.07394 19.4167 9.33008C19.0278 9.58622 18.5486 9.71429 17.9792 9.71429H16.5833C15.8681 8.93638 14.9479 8.53162 13.8229 8.5C14.3854 7.76004 14.6667 6.95052 14.6667 6.07143C14.6667 5.88802 14.6493 5.67932 14.6146 5.44531C15.0729 5.59077 15.5347 5.6635 16 5.6635C16.4097 5.6635 16.8229 5.59552 17.2396 5.45954C17.6562 5.32357 17.9948 5.18917 18.2552 5.05636C18.5156 4.92355 18.6667 4.85714 18.7083 4.85714C19.5694 4.85714 20 5.9734 20 8.20592ZM18.6667 2.42857C18.6667 3.09896 18.4062 3.67132 17.8854 4.14565C17.3646 4.61998 16.7361 4.85714 16 4.85714C15.2639 4.85714 14.6354 4.61998 14.1146 4.14565C13.5938 3.67132 13.3333 3.09896 13.3333 2.42857C13.3333 1.75818 13.5938 1.18583 14.1146 0.711496C14.6354 0.237165 15.2639 0 16 0C16.7361 0 17.3646 0.237165 17.8854 0.711496C18.4062 1.18583 18.6667 1.75818 18.6667 2.42857Z" fill="#195964"/>
</g>
<defs>
<clipPath id="clip0_564_5076">
<rect width="20" height="17" fill="white"/>
</clipPath>
</defs>
</svg>
