<svg width="994" height="620" viewBox="0 0 994 620" fill="none" xmlns="http://www.w3.org/2000/svg">
<path d="M115.217 17.3521H112.506V492.754H115.217V17.3521Z" fill="#D1D1D1"/>
<path d="M206.711 20H204V495.402H206.711V20Z" fill="#B0C9CD"/>
<path d="M297.711 20H295V495.402H297.711V20Z" fill="#B0C9CD"/>
<path d="M388.711 20H386V495.402H388.711V20Z" fill="#B0C9CD"/>
<path d="M479.711 20H477V495.402H479.711V20Z" fill="#B0C9CD"/>
<path d="M570.711 20H568V495.402H570.711V20Z" fill="#B0C9CD"/>
<path d="M661.711 20H659V495.402H661.711V20Z" fill="#B0C9CD"/>
<path d="M752.711 20H750V495.402H752.711V20Z" fill="#B0C9CD"/>
<path d="M843.711 20H841V495.402H843.711V20Z" fill="#B0C9CD"/>
<path d="M934.711 20H932V495.402H934.711V20Z" fill="#B0C9CD"/>
<path d="M993.58 17.3521H990.869V492.754H993.58V17.3521Z" fill="#D1D1D1"/>
<path d="M993.58 490.377H112.506V492.754H993.58V490.377Z" fill="#D1D1D1"/>
<path d="M993.58 395.297H112.506V397.674H993.58V395.297Z" fill="#B0C9CD"/>
<path d="M993.58 300.216H112.506V302.593H993.58V300.216Z" fill="#B0C9CD"/>
<path d="M993.58 207.513H112.506V209.89H993.58V207.513Z" fill="#B0C9CD"/>
<path d="M993.58 112.432H112.506V114.809H993.58V112.432Z" fill="#B0C9CD"/>
<path d="M993.58 17.3521H112.506V19.7291H993.58V17.3521Z" fill="#B0C9CD"/>
<path d="M993.58 442.837H112.506V445.214H993.58V442.837Z" fill="#B0C9CD"/>
<path d="M993.58 347.757H112.506V350.134H993.58V347.757Z" fill="#B0C9CD"/>
<path d="M993.58 255.053H112.506V257.43H993.58V255.053Z" fill="#B0C9CD"/>
<path d="M993.58 159.973H112.506V162.35H993.58V159.973Z" fill="#B0C9CD"/>
<path d="M993.58 64.8923H112.506V67.2693H993.58V64.8923Z" fill="#B0C9CD"/>
<path d="M115.217 17.3521H112.506V492.754H115.217V17.3521Z" fill="#195964"/>
<path d="M993.58 490.377H112.506V492.754H993.58V490.377Z" fill="#195964"/>
<path d="M113.861 302.355C113.861 302.355 267 556.5 387 215C484 -36.5 572.5 215 703 203.5C920 203.5 935.5 20.5 935.5 20.5" stroke="url(#paint0_linear_588_2752)" stroke-width="3"/>
<path d="M205.728 605.168V609.824L208 610.624V612.528L196.864 608.544V606.432L208 602.448V604.368L205.728 605.168ZM204.24 605.68L199.072 607.488L204.24 609.312V605.68ZM200.48 598.891C200.075 598.582 199.733 598.161 199.456 597.627C199.179 597.094 199.04 596.491 199.04 595.819C199.04 595.051 199.232 594.353 199.616 593.723C199.989 593.083 200.517 592.582 201.2 592.219C201.883 591.857 202.667 591.675 203.552 591.675C204.437 591.675 205.232 591.857 205.936 592.219C206.629 592.582 207.173 593.083 207.568 593.723C207.952 594.353 208.144 595.051 208.144 595.819C208.144 596.491 208.011 597.089 207.744 597.611C207.467 598.134 207.125 598.561 206.72 598.891H212.192V600.715H199.184V598.891H200.48ZM203.552 593.531C202.944 593.531 202.421 593.659 201.984 593.915C201.536 594.161 201.2 594.491 200.976 594.907C200.741 595.313 200.624 595.75 200.624 596.219C200.624 596.678 200.741 597.115 200.976 597.531C201.211 597.937 201.552 598.267 202 598.523C202.448 598.769 202.976 598.891 203.584 598.891C204.192 598.891 204.725 598.769 205.184 598.523C205.632 598.267 205.973 597.937 206.208 597.531C206.443 597.115 206.56 596.678 206.56 596.219C206.56 595.75 206.443 595.313 206.208 594.907C205.963 594.491 205.611 594.161 205.152 593.915C204.693 593.659 204.16 593.531 203.552 593.531ZM200.464 588.048C200.016 587.781 199.669 587.429 199.424 586.992C199.168 586.544 199.04 586.016 199.04 585.408H200.928V585.872C200.928 586.586 201.109 587.13 201.472 587.504C201.835 587.866 202.464 588.048 203.36 588.048H208V589.872H199.184V588.048H200.464ZM198.016 582.803C198.016 583.134 197.904 583.411 197.68 583.635C197.456 583.859 197.179 583.971 196.848 583.971C196.517 583.971 196.24 583.859 196.016 583.635C195.792 583.411 195.68 583.134 195.68 582.803C195.68 582.483 195.792 582.211 196.016 581.987C196.24 581.763 196.517 581.651 196.848 581.651C197.179 581.651 197.456 581.763 197.68 581.987C197.904 582.211 198.016 582.483 198.016 582.803ZM199.184 581.907H208V583.731H199.184V581.907ZM196.16 577.688H208V579.512H196.16V577.688ZM196.88 556.657L208 559.953V562.017L199.584 564.353L208 566.833L208.016 568.881L196.88 572.033V570.097L205.936 567.793L196.88 565.297V563.249L205.888 560.929L196.88 558.609V556.657ZM203.376 547.073C203.707 547.073 204.005 547.094 204.272 547.137V553.873C204.976 553.819 205.541 553.558 205.968 553.089C206.395 552.619 206.608 552.043 206.608 551.361C206.608 550.379 206.197 549.686 205.376 549.281V547.313C206.187 547.579 206.853 548.065 207.376 548.769C207.888 549.462 208.144 550.326 208.144 551.361C208.144 552.203 207.957 552.961 207.584 553.633C207.2 554.294 206.667 554.817 205.984 555.201C205.291 555.574 204.491 555.761 203.584 555.761C202.677 555.761 201.883 555.579 201.2 555.217C200.507 554.843 199.973 554.326 199.6 553.665C199.227 552.993 199.04 552.225 199.04 551.361C199.04 550.529 199.221 549.787 199.584 549.137C199.947 548.486 200.459 547.979 201.12 547.617C201.771 547.254 202.523 547.073 203.376 547.073ZM202.8 548.977C202.128 548.987 201.589 549.227 201.184 549.697C200.779 550.166 200.576 550.747 200.576 551.441C200.576 552.07 200.779 552.609 201.184 553.057C201.579 553.505 202.117 553.771 202.8 553.857V548.977ZM203.376 537.198C203.707 537.198 204.005 537.219 204.272 537.262V543.998C204.976 543.944 205.541 543.683 205.968 543.214C206.395 542.744 206.608 542.168 206.608 541.486C206.608 540.504 206.197 539.811 205.376 539.406V537.438C206.187 537.704 206.853 538.19 207.376 538.894C207.888 539.587 208.144 540.451 208.144 541.486C208.144 542.328 207.957 543.086 207.584 543.758C207.2 544.419 206.667 544.942 205.984 545.326C205.291 545.699 204.491 545.886 203.584 545.886C202.677 545.886 201.883 545.704 201.2 545.342C200.507 544.968 199.973 544.451 199.6 543.79C199.227 543.118 199.04 542.35 199.04 541.486C199.04 540.654 199.221 539.912 199.584 539.262C199.947 538.611 200.459 538.104 201.12 537.742C201.771 537.379 202.523 537.198 203.376 537.198ZM202.8 539.102C202.128 539.112 201.589 539.352 201.184 539.822C200.779 540.291 200.576 540.872 200.576 541.566C200.576 542.195 200.779 542.734 201.184 543.182C201.579 543.63 202.117 543.896 202.8 543.982V539.102ZM203.6 531.915L208 527.851V530.315L204.208 533.579H208V535.403H196.16V533.579H203.04L199.184 530.379V527.851L203.6 531.915ZM201.44 519.775H202.976V526.351H201.44V519.775ZM198 517.664H196.336V514.336H208V516.176H198V517.664Z" fill="#195964"/>
<path d="M296.728 606.988V611.644L299 612.444V614.348L287.864 610.364V608.252L299 604.268V606.188L296.728 606.988ZM295.24 607.5L290.072 609.308L295.24 611.132V607.5ZM291.48 600.712C291.075 600.402 290.733 599.981 290.456 599.448C290.179 598.914 290.04 598.312 290.04 597.64C290.04 596.872 290.232 596.173 290.616 595.544C290.989 594.904 291.517 594.402 292.2 594.04C292.883 593.677 293.667 593.496 294.552 593.496C295.437 593.496 296.232 593.677 296.936 594.04C297.629 594.402 298.173 594.904 298.568 595.544C298.952 596.173 299.144 596.872 299.144 597.64C299.144 598.312 299.011 598.909 298.744 599.432C298.467 599.954 298.125 600.381 297.72 600.712H303.192V602.536H290.184V600.712H291.48ZM294.552 595.352C293.944 595.352 293.421 595.48 292.984 595.736C292.536 595.981 292.2 596.312 291.976 596.728C291.741 597.133 291.624 597.57 291.624 598.04C291.624 598.498 291.741 598.936 291.976 599.352C292.211 599.757 292.552 600.088 293 600.344C293.448 600.589 293.976 600.712 294.584 600.712C295.192 600.712 295.725 600.589 296.184 600.344C296.632 600.088 296.973 599.757 297.208 599.352C297.443 598.936 297.56 598.498 297.56 598.04C297.56 597.57 297.443 597.133 297.208 596.728C296.963 596.312 296.611 595.981 296.152 595.736C295.693 595.48 295.16 595.352 294.552 595.352ZM291.464 589.868C291.016 589.601 290.669 589.249 290.424 588.812C290.168 588.364 290.04 587.836 290.04 587.228H291.928V587.692C291.928 588.406 292.109 588.95 292.472 589.324C292.835 589.686 293.464 589.868 294.36 589.868H299V591.692H290.184V589.868H291.464ZM289.016 584.623C289.016 584.954 288.904 585.231 288.68 585.455C288.456 585.679 288.179 585.791 287.848 585.791C287.517 585.791 287.24 585.679 287.016 585.455C286.792 585.231 286.68 584.954 286.68 584.623C286.68 584.303 286.792 584.031 287.016 583.807C287.24 583.583 287.517 583.471 287.848 583.471C288.179 583.471 288.456 583.583 288.68 583.807C288.904 584.031 289.016 584.303 289.016 584.623ZM290.184 583.727H299V585.551H290.184V583.727ZM287.16 579.508H299V581.332H287.16V579.508ZM287.88 558.477L299 561.773V563.837L290.584 566.173L299 568.653L299.016 570.701L287.88 573.853V571.917L296.936 569.613L287.88 567.117V565.069L296.888 562.749L287.88 560.429V558.477ZM294.376 548.893C294.707 548.893 295.005 548.914 295.272 548.957V555.693C295.976 555.64 296.541 555.378 296.968 554.909C297.395 554.44 297.608 553.864 297.608 553.181C297.608 552.2 297.197 551.506 296.376 551.101V549.133C297.187 549.4 297.853 549.885 298.376 550.589C298.888 551.282 299.144 552.146 299.144 553.181C299.144 554.024 298.957 554.781 298.584 555.453C298.2 556.114 297.667 556.637 296.984 557.021C296.291 557.394 295.491 557.581 294.584 557.581C293.677 557.581 292.883 557.4 292.2 557.037C291.507 556.664 290.973 556.146 290.6 555.485C290.227 554.813 290.04 554.045 290.04 553.181C290.04 552.349 290.221 551.608 290.584 550.957C290.947 550.306 291.459 549.8 292.12 549.437C292.771 549.074 293.523 548.893 294.376 548.893ZM293.8 550.797C293.128 550.808 292.589 551.048 292.184 551.517C291.779 551.986 291.576 552.568 291.576 553.261C291.576 553.89 291.779 554.429 292.184 554.877C292.579 555.325 293.117 555.592 293.8 555.677V550.797ZM294.376 539.018C294.707 539.018 295.005 539.039 295.272 539.082V545.818C295.976 545.765 296.541 545.503 296.968 545.034C297.395 544.565 297.608 543.989 297.608 543.306C297.608 542.325 297.197 541.631 296.376 541.226V539.258C297.187 539.525 297.853 540.01 298.376 540.714C298.888 541.407 299.144 542.271 299.144 543.306C299.144 544.149 298.957 544.906 298.584 545.578C298.2 546.239 297.667 546.762 296.984 547.146C296.291 547.519 295.491 547.706 294.584 547.706C293.677 547.706 292.883 547.525 292.2 547.162C291.507 546.789 290.973 546.271 290.6 545.61C290.227 544.938 290.04 544.17 290.04 543.306C290.04 542.474 290.221 541.733 290.584 541.082C290.947 540.431 291.459 539.925 292.12 539.562C292.771 539.199 293.523 539.018 294.376 539.018ZM293.8 540.922C293.128 540.933 292.589 541.173 292.184 541.642C291.779 542.111 291.576 542.693 291.576 543.386C291.576 544.015 291.779 544.554 292.184 545.002C292.579 545.45 293.117 545.717 293.8 545.802V540.922ZM294.6 533.735L299 529.671V532.135L295.208 535.399H299V537.223H287.16V535.399H294.04L290.184 532.199V529.671L294.6 533.735ZM292.44 521.596H293.976V528.172H292.44V521.596ZM296.52 518.236C295.635 517.212 294.909 516.407 294.344 515.82C293.768 515.223 293.171 514.727 292.552 514.332C291.933 513.938 291.315 513.74 290.696 513.74C290.056 513.74 289.555 513.895 289.192 514.204C288.829 514.503 288.648 514.978 288.648 515.628C288.648 516.258 288.851 516.748 289.256 517.1C289.651 517.442 290.184 517.623 290.856 517.644V519.404C289.64 519.372 288.712 519.01 288.072 518.316C287.421 517.612 287.096 516.722 287.096 515.644C287.096 514.482 287.416 513.575 288.056 512.924C288.696 512.263 289.549 511.932 290.616 511.932C291.384 511.932 292.125 512.13 292.84 512.524C293.544 512.908 294.179 513.372 294.744 513.916C295.299 514.45 295.944 515.132 296.68 515.964L297.32 516.684V511.612H298.84V519.388H297.512L296.52 518.236Z" fill="#195964"/>
<path d="M387.728 607.121V611.777L390 612.577V614.481L378.864 610.497V608.385L390 604.401V606.321L387.728 607.121ZM386.24 607.633L381.072 609.441L386.24 611.265V607.633ZM382.48 600.844C382.075 600.535 381.733 600.114 381.456 599.58C381.179 599.047 381.04 598.444 381.04 597.772C381.04 597.004 381.232 596.306 381.616 595.676C381.989 595.036 382.517 594.535 383.2 594.172C383.883 593.81 384.667 593.628 385.552 593.628C386.437 593.628 387.232 593.81 387.936 594.172C388.629 594.535 389.173 595.036 389.568 595.676C389.952 596.306 390.144 597.004 390.144 597.772C390.144 598.444 390.011 599.042 389.744 599.564C389.467 600.087 389.125 600.514 388.72 600.844H394.192V602.668H381.184V600.844H382.48ZM385.552 595.484C384.944 595.484 384.421 595.612 383.984 595.868C383.536 596.114 383.2 596.444 382.976 596.86C382.741 597.266 382.624 597.703 382.624 598.172C382.624 598.631 382.741 599.068 382.976 599.484C383.211 599.89 383.552 600.22 384 600.476C384.448 600.722 384.976 600.844 385.584 600.844C386.192 600.844 386.725 600.722 387.184 600.476C387.632 600.22 387.973 599.89 388.208 599.484C388.443 599.068 388.56 598.631 388.56 598.172C388.56 597.703 388.443 597.266 388.208 596.86C387.963 596.444 387.611 596.114 387.152 595.868C386.693 595.612 386.16 595.484 385.552 595.484ZM382.464 590.001C382.016 589.734 381.669 589.382 381.424 588.945C381.168 588.497 381.04 587.969 381.04 587.361H382.928V587.825C382.928 588.539 383.109 589.083 383.472 589.457C383.835 589.819 384.464 590.001 385.36 590.001H390V591.825H381.184V590.001H382.464ZM380.016 584.756C380.016 585.087 379.904 585.364 379.68 585.588C379.456 585.812 379.179 585.924 378.848 585.924C378.517 585.924 378.24 585.812 378.016 585.588C377.792 585.364 377.68 585.087 377.68 584.756C377.68 584.436 377.792 584.164 378.016 583.94C378.24 583.716 378.517 583.604 378.848 583.604C379.179 583.604 379.456 583.716 379.68 583.94C379.904 584.164 380.016 584.436 380.016 584.756ZM381.184 583.86H390V585.684H381.184V583.86ZM378.16 579.641H390V581.465H378.16V579.641ZM378.88 558.61L390 561.906V563.97L381.584 566.306L390 568.786L390.016 570.834L378.88 573.986V572.05L387.936 569.746L378.88 567.25V565.202L387.888 562.882L378.88 560.562V558.61ZM385.376 549.026C385.707 549.026 386.005 549.047 386.272 549.09V555.826C386.976 555.773 387.541 555.511 387.968 555.042C388.395 554.573 388.608 553.997 388.608 553.314C388.608 552.333 388.197 551.639 387.376 551.234V549.266C388.187 549.533 388.853 550.018 389.376 550.722C389.888 551.415 390.144 552.279 390.144 553.314C390.144 554.157 389.957 554.914 389.584 555.586C389.2 556.247 388.667 556.77 387.984 557.154C387.291 557.527 386.491 557.714 385.584 557.714C384.677 557.714 383.883 557.533 383.2 557.17C382.507 556.797 381.973 556.279 381.6 555.618C381.227 554.946 381.04 554.178 381.04 553.314C381.04 552.482 381.221 551.741 381.584 551.09C381.947 550.439 382.459 549.933 383.12 549.57C383.771 549.207 384.523 549.026 385.376 549.026ZM384.8 550.93C384.128 550.941 383.589 551.181 383.184 551.65C382.779 552.119 382.576 552.701 382.576 553.394C382.576 554.023 382.779 554.562 383.184 555.01C383.579 555.458 384.117 555.725 384.8 555.81V550.93ZM385.376 539.151C385.707 539.151 386.005 539.172 386.272 539.215V545.951C386.976 545.898 387.541 545.636 387.968 545.167C388.395 544.698 388.608 544.122 388.608 543.439C388.608 542.458 388.197 541.764 387.376 541.359V539.391C388.187 539.658 388.853 540.143 389.376 540.847C389.888 541.54 390.144 542.404 390.144 543.439C390.144 544.282 389.957 545.039 389.584 545.711C389.2 546.372 388.667 546.895 387.984 547.279C387.291 547.652 386.491 547.839 385.584 547.839C384.677 547.839 383.883 547.658 383.2 547.295C382.507 546.922 381.973 546.404 381.6 545.743C381.227 545.071 381.04 544.303 381.04 543.439C381.04 542.607 381.221 541.866 381.584 541.215C381.947 540.564 382.459 540.058 383.12 539.695C383.771 539.332 384.523 539.151 385.376 539.151ZM384.8 541.055C384.128 541.066 383.589 541.306 383.184 541.775C382.779 542.244 382.576 542.826 382.576 543.519C382.576 544.148 382.779 544.687 383.184 545.135C383.579 545.583 384.117 545.85 384.8 545.935V541.055ZM385.6 533.868L390 529.804V532.268L386.208 535.532H390V537.356H378.16V535.532H385.04L381.184 532.332V529.804L385.6 533.868ZM383.44 521.729H384.976V528.305H383.44V521.729ZM381.216 519.409C380.224 519.345 379.451 518.966 378.896 518.273C378.341 517.569 378.064 516.673 378.064 515.585C378.064 514.838 378.197 514.193 378.464 513.649C378.731 513.105 379.093 512.694 379.552 512.417C380.011 512.14 380.528 512.001 381.104 512.001C381.765 512.001 382.331 512.177 382.8 512.529C383.269 512.881 383.584 513.302 383.744 513.793H383.808C384 513.164 384.352 512.673 384.864 512.321C385.365 511.969 386.011 511.793 386.8 511.793C387.429 511.793 387.989 511.937 388.48 512.225C388.971 512.513 389.36 512.94 389.648 513.505C389.925 514.07 390.064 514.748 390.064 515.537C390.064 516.689 389.771 517.638 389.184 518.385C388.587 519.121 387.733 519.516 386.624 519.569V517.809C387.189 517.766 387.653 517.548 388.016 517.153C388.368 516.758 388.544 516.225 388.544 515.553C388.544 514.902 388.368 514.401 388.016 514.049C387.653 513.697 387.189 513.521 386.624 513.521C385.877 513.521 385.349 513.761 385.04 514.241C384.72 514.71 384.56 515.436 384.56 516.417V516.833H383.056V516.401C383.045 515.537 382.901 514.881 382.624 514.433C382.347 513.974 381.909 513.745 381.312 513.745C380.8 513.745 380.395 513.91 380.096 514.241C379.787 514.572 379.632 515.041 379.632 515.649C379.632 516.246 379.787 516.71 380.096 517.041C380.395 517.372 380.768 517.569 381.216 517.633V519.409Z" fill="#195964"/>
<path d="M478.728 607.55V612.206L481 613.006V614.91L469.864 610.926V608.814L481 604.83V606.75L478.728 607.55ZM477.24 608.062L472.072 609.87L477.24 611.694V608.062ZM473.48 601.274C473.075 600.965 472.733 600.543 472.456 600.01C472.179 599.477 472.04 598.874 472.04 598.202C472.04 597.434 472.232 596.735 472.616 596.106C472.989 595.466 473.517 594.965 474.2 594.602C474.883 594.239 475.667 594.058 476.552 594.058C477.437 594.058 478.232 594.239 478.936 594.602C479.629 594.965 480.173 595.466 480.568 596.106C480.952 596.735 481.144 597.434 481.144 598.202C481.144 598.874 481.011 599.471 480.744 599.994C480.467 600.517 480.125 600.943 479.72 601.274H485.192V603.098H472.184V601.274H473.48ZM476.552 595.914C475.944 595.914 475.421 596.042 474.984 596.298C474.536 596.543 474.2 596.874 473.976 597.29C473.741 597.695 473.624 598.133 473.624 598.602C473.624 599.061 473.741 599.498 473.976 599.914C474.211 600.319 474.552 600.65 475 600.906C475.448 601.151 475.976 601.274 476.584 601.274C477.192 601.274 477.725 601.151 478.184 600.906C478.632 600.65 478.973 600.319 479.208 599.914C479.443 599.498 479.56 599.061 479.56 598.602C479.56 598.133 479.443 597.695 479.208 597.29C478.963 596.874 478.611 596.543 478.152 596.298C477.693 596.042 477.16 595.914 476.552 595.914ZM473.464 590.43C473.016 590.164 472.669 589.812 472.424 589.374C472.168 588.926 472.04 588.398 472.04 587.79H473.928V588.254C473.928 588.969 474.109 589.513 474.472 589.886C474.835 590.249 475.464 590.43 476.36 590.43H481V592.254H472.184V590.43H473.464ZM471.016 585.186C471.016 585.516 470.904 585.794 470.68 586.018C470.456 586.242 470.179 586.354 469.848 586.354C469.517 586.354 469.24 586.242 469.016 586.018C468.792 585.794 468.68 585.516 468.68 585.186C468.68 584.866 468.792 584.594 469.016 584.37C469.24 584.146 469.517 584.034 469.848 584.034C470.179 584.034 470.456 584.146 470.68 584.37C470.904 584.594 471.016 584.866 471.016 585.186ZM472.184 584.29H481V586.114H472.184V584.29ZM469.16 580.071H481V581.895H469.16V580.071ZM469.88 559.04L481 562.336V564.4L472.584 566.736L481 569.216L481.016 571.264L469.88 574.416V572.48L478.936 570.176L469.88 567.68V565.632L478.888 563.312L469.88 560.992V559.04ZM476.376 549.456C476.707 549.456 477.005 549.477 477.272 549.52V556.256C477.976 556.202 478.541 555.941 478.968 555.472C479.395 555.002 479.608 554.426 479.608 553.744C479.608 552.762 479.197 552.069 478.376 551.664V549.696C479.187 549.962 479.853 550.448 480.376 551.152C480.888 551.845 481.144 552.709 481.144 553.744C481.144 554.586 480.957 555.344 480.584 556.016C480.2 556.677 479.667 557.2 478.984 557.584C478.291 557.957 477.491 558.144 476.584 558.144C475.677 558.144 474.883 557.962 474.2 557.6C473.507 557.226 472.973 556.709 472.6 556.048C472.227 555.376 472.04 554.608 472.04 553.744C472.04 552.912 472.221 552.17 472.584 551.52C472.947 550.869 473.459 550.362 474.12 550C474.771 549.637 475.523 549.456 476.376 549.456ZM475.8 551.36C475.128 551.37 474.589 551.61 474.184 552.08C473.779 552.549 473.576 553.13 473.576 553.824C473.576 554.453 473.779 554.992 474.184 555.44C474.579 555.888 475.117 556.154 475.8 556.24V551.36ZM476.376 539.581C476.707 539.581 477.005 539.602 477.272 539.645V546.381C477.976 546.327 478.541 546.066 478.968 545.597C479.395 545.127 479.608 544.551 479.608 543.869C479.608 542.887 479.197 542.194 478.376 541.789V539.821C479.187 540.087 479.853 540.573 480.376 541.277C480.888 541.97 481.144 542.834 481.144 543.869C481.144 544.711 480.957 545.469 480.584 546.141C480.2 546.802 479.667 547.325 478.984 547.709C478.291 548.082 477.491 548.269 476.584 548.269C475.677 548.269 474.883 548.087 474.2 547.725C473.507 547.351 472.973 546.834 472.6 546.173C472.227 545.501 472.04 544.733 472.04 543.869C472.04 543.037 472.221 542.295 472.584 541.645C472.947 540.994 473.459 540.487 474.12 540.125C474.771 539.762 475.523 539.581 476.376 539.581ZM475.8 541.485C475.128 541.495 474.589 541.735 474.184 542.205C473.779 542.674 473.576 543.255 473.576 543.949C473.576 544.578 473.779 545.117 474.184 545.565C474.579 546.013 475.117 546.279 475.8 546.365V541.485ZM476.6 534.298L481 530.234V532.698L477.208 535.962H481V537.786H469.16V535.962H476.04L472.184 532.762V530.234L476.6 534.298ZM474.44 522.158H475.976V528.734H474.44V522.158ZM478.568 520.031H477.192L469.48 514.655V512.447H476.984V510.959H478.568V512.447H481V514.239H478.568V520.031ZM471.336 514.159L476.984 517.935V514.159H471.336Z" fill="#195964"/>
<path d="M560.88 599.003H572V600.827H564.384L572 604.219V605.483L564.384 608.891H572V610.715H560.88V608.747L569.6 604.843L560.88 600.955V599.003ZM567.552 597.214C566.667 597.214 565.883 597.033 565.2 596.67C564.517 596.297 563.989 595.795 563.616 595.166C563.232 594.526 563.04 593.822 563.04 593.054C563.04 592.361 563.179 591.758 563.456 591.246C563.723 590.723 564.059 590.307 564.464 589.998H563.184V588.158H572V589.998H570.688C571.104 590.307 571.451 590.729 571.728 591.262C572.005 591.795 572.144 592.403 572.144 593.086C572.144 593.843 571.952 594.537 571.568 595.166C571.173 595.795 570.629 596.297 569.936 596.67C569.232 597.033 568.437 597.214 567.552 597.214ZM567.584 589.998C566.976 589.998 566.448 590.126 566 590.382C565.552 590.627 565.211 590.953 564.976 591.358C564.741 591.763 564.624 592.201 564.624 592.67C564.624 593.139 564.741 593.577 564.976 593.982C565.2 594.387 565.536 594.718 565.984 594.974C566.421 595.219 566.944 595.342 567.552 595.342C568.16 595.342 568.693 595.219 569.152 594.974C569.611 594.718 569.963 594.387 570.208 593.982C570.443 593.566 570.56 593.129 570.56 592.67C570.56 592.201 570.443 591.763 570.208 591.358C569.973 590.953 569.632 590.627 569.184 590.382C568.725 590.126 568.192 589.998 567.584 589.998ZM563.184 577.826L576.144 583.234V585.122L571.856 583.33L563.184 586.802V584.77L569.904 582.29L563.184 579.714V577.826ZM560.88 557.813L572 561.109V563.173L563.584 565.509L572 567.989L572.016 570.037L560.88 573.189V571.253L569.936 568.949L560.88 566.453V564.405L569.888 562.085L560.88 559.765V557.813ZM567.376 548.229C567.707 548.229 568.005 548.25 568.272 548.293V555.029C568.976 554.976 569.541 554.714 569.968 554.245C570.395 553.776 570.608 553.2 570.608 552.517C570.608 551.536 570.197 550.842 569.376 550.437V548.469C570.187 548.736 570.853 549.221 571.376 549.925C571.888 550.618 572.144 551.482 572.144 552.517C572.144 553.36 571.957 554.117 571.584 554.789C571.2 555.45 570.667 555.973 569.984 556.357C569.291 556.73 568.491 556.917 567.584 556.917C566.677 556.917 565.883 556.736 565.2 556.373C564.507 556 563.973 555.482 563.6 554.821C563.227 554.149 563.04 553.381 563.04 552.517C563.04 551.685 563.221 550.944 563.584 550.293C563.947 549.642 564.459 549.136 565.12 548.773C565.771 548.41 566.523 548.229 567.376 548.229ZM566.8 550.133C566.128 550.144 565.589 550.384 565.184 550.853C564.779 551.322 564.576 551.904 564.576 552.597C564.576 553.226 564.779 553.765 565.184 554.213C565.579 554.661 566.117 554.928 566.8 555.013V550.133ZM567.376 538.354C567.707 538.354 568.005 538.375 568.272 538.418V545.154C568.976 545.101 569.541 544.839 569.968 544.37C570.395 543.901 570.608 543.325 570.608 542.642C570.608 541.661 570.197 540.967 569.376 540.562V538.594C570.187 538.861 570.853 539.346 571.376 540.05C571.888 540.743 572.144 541.607 572.144 542.642C572.144 543.485 571.957 544.242 571.584 544.914C571.2 545.575 570.667 546.098 569.984 546.482C569.291 546.855 568.491 547.042 567.584 547.042C566.677 547.042 565.883 546.861 565.2 546.498C564.507 546.125 563.973 545.607 563.6 544.946C563.227 544.274 563.04 543.506 563.04 542.642C563.04 541.81 563.221 541.069 563.584 540.418C563.947 539.767 564.459 539.261 565.12 538.898C565.771 538.535 566.523 538.354 567.376 538.354ZM566.8 540.258C566.128 540.269 565.589 540.509 565.184 540.978C564.779 541.447 564.576 542.029 564.576 542.722C564.576 543.351 564.779 543.89 565.184 544.338C565.579 544.786 566.117 545.053 566.8 545.138V540.258ZM567.6 533.071L572 529.007V531.471L568.208 534.735H572V536.559H560.16V534.735H567.04L563.184 531.535V529.007L567.6 533.071ZM565.44 520.932H566.976V527.508H565.44V520.932ZM562 518.82H560.336V515.492H572V517.332H562V518.82Z" fill="#195964"/>
<path d="M651.88 600.824H663V602.648H655.384L663 606.04V607.304L655.384 610.712H663V612.536H651.88V610.568L660.6 606.664L651.88 602.776V600.824ZM658.552 599.034C657.667 599.034 656.883 598.853 656.2 598.49C655.517 598.117 654.989 597.616 654.616 596.986C654.232 596.346 654.04 595.642 654.04 594.874C654.04 594.181 654.179 593.578 654.456 593.066C654.723 592.544 655.059 592.128 655.464 591.818H654.184V589.978H663V591.818H661.688C662.104 592.128 662.451 592.549 662.728 593.082C663.005 593.616 663.144 594.224 663.144 594.906C663.144 595.664 662.952 596.357 662.568 596.986C662.173 597.616 661.629 598.117 660.936 598.49C660.232 598.853 659.437 599.034 658.552 599.034ZM658.584 591.818C657.976 591.818 657.448 591.946 657 592.202C656.552 592.448 656.211 592.773 655.976 593.178C655.741 593.584 655.624 594.021 655.624 594.49C655.624 594.96 655.741 595.397 655.976 595.802C656.2 596.208 656.536 596.538 656.984 596.794C657.421 597.04 657.944 597.162 658.552 597.162C659.16 597.162 659.693 597.04 660.152 596.794C660.611 596.538 660.963 596.208 661.208 595.802C661.443 595.386 661.56 594.949 661.56 594.49C661.56 594.021 661.443 593.584 661.208 593.178C660.973 592.773 660.632 592.448 660.184 592.202C659.725 591.946 659.192 591.818 658.584 591.818ZM654.184 579.646L667.144 585.054V586.942L662.856 585.15L654.184 588.622V586.59L660.904 584.11L654.184 581.534V579.646ZM651.88 559.634L663 562.93V564.994L654.584 567.33L663 569.81L663.016 571.858L651.88 575.01V573.074L660.936 570.77L651.88 568.274V566.226L660.888 563.906L651.88 561.586V559.634ZM658.376 550.049C658.707 550.049 659.005 550.071 659.272 550.113V556.849C659.976 556.796 660.541 556.535 660.968 556.065C661.395 555.596 661.608 555.02 661.608 554.337C661.608 553.356 661.197 552.663 660.376 552.257V550.289C661.187 550.556 661.853 551.041 662.376 551.745C662.888 552.439 663.144 553.303 663.144 554.337C663.144 555.18 662.957 555.937 662.584 556.609C662.2 557.271 661.667 557.793 660.984 558.177C660.291 558.551 659.491 558.737 658.584 558.737C657.677 558.737 656.883 558.556 656.2 558.193C655.507 557.82 654.973 557.303 654.6 556.641C654.227 555.969 654.04 555.201 654.04 554.337C654.04 553.505 654.221 552.764 654.584 552.113C654.947 551.463 655.459 550.956 656.12 550.593C656.771 550.231 657.523 550.049 658.376 550.049ZM657.8 551.953C657.128 551.964 656.589 552.204 656.184 552.673C655.779 553.143 655.576 553.724 655.576 554.417C655.576 555.047 655.779 555.585 656.184 556.033C656.579 556.481 657.117 556.748 657.8 556.833V551.953ZM658.376 540.174C658.707 540.174 659.005 540.196 659.272 540.238V546.974C659.976 546.921 660.541 546.66 660.968 546.19C661.395 545.721 661.608 545.145 661.608 544.462C661.608 543.481 661.197 542.788 660.376 542.382V540.414C661.187 540.681 661.853 541.166 662.376 541.87C662.888 542.564 663.144 543.428 663.144 544.462C663.144 545.305 662.957 546.062 662.584 546.734C662.2 547.396 661.667 547.918 660.984 548.302C660.291 548.676 659.491 548.862 658.584 548.862C657.677 548.862 656.883 548.681 656.2 548.318C655.507 547.945 654.973 547.428 654.6 546.766C654.227 546.094 654.04 545.326 654.04 544.462C654.04 543.63 654.221 542.889 654.584 542.238C654.947 541.588 655.459 541.081 656.12 540.718C656.771 540.356 657.523 540.174 658.376 540.174ZM657.8 542.078C657.128 542.089 656.589 542.329 656.184 542.798C655.779 543.268 655.576 543.849 655.576 544.542C655.576 545.172 655.779 545.71 656.184 546.158C656.579 546.606 657.117 546.873 657.8 546.958V542.078ZM658.6 534.891L663 530.827V533.291L659.208 536.555H663V538.379H651.16V536.555H658.04L654.184 533.355V530.827L658.6 534.891ZM656.44 522.752H657.976V529.328H656.44V522.752ZM660.52 519.393C659.635 518.369 658.909 517.563 658.344 516.977C657.768 516.379 657.171 515.883 656.552 515.489C655.933 515.094 655.315 514.897 654.696 514.897C654.056 514.897 653.555 515.051 653.192 515.361C652.829 515.659 652.648 516.134 652.648 516.785C652.648 517.414 652.851 517.905 653.256 518.257C653.651 518.598 654.184 518.779 654.856 518.801V520.561C653.64 520.529 652.712 520.166 652.072 519.473C651.421 518.769 651.096 517.878 651.096 516.801C651.096 515.638 651.416 514.731 652.056 514.081C652.696 513.419 653.549 513.089 654.616 513.089C655.384 513.089 656.125 513.286 656.84 513.681C657.544 514.065 658.179 514.529 658.744 515.073C659.299 515.606 659.944 516.289 660.68 517.121L661.32 517.841V512.769H662.84V520.545H661.512L660.52 519.393Z" fill="#195964"/>
<path d="M742.88 600.956H754V602.78H746.384L754 606.172V607.436L746.384 610.844H754V612.668H742.88V610.7L751.6 606.796L742.88 602.908V600.956ZM749.552 599.167C748.667 599.167 747.883 598.986 747.2 598.623C746.517 598.25 745.989 597.748 745.616 597.119C745.232 596.479 745.04 595.775 745.04 595.007C745.04 594.314 745.179 593.711 745.456 593.199C745.723 592.676 746.059 592.26 746.464 591.951H745.184V590.111H754V591.951H752.688C753.104 592.26 753.451 592.682 753.728 593.215C754.005 593.748 754.144 594.356 754.144 595.039C754.144 595.796 753.952 596.49 753.568 597.119C753.173 597.748 752.629 598.25 751.936 598.623C751.232 598.986 750.437 599.167 749.552 599.167ZM749.584 591.951C748.976 591.951 748.448 592.079 748 592.335C747.552 592.58 747.211 592.906 746.976 593.311C746.741 593.716 746.624 594.154 746.624 594.623C746.624 595.092 746.741 595.53 746.976 595.935C747.2 596.34 747.536 596.671 747.984 596.927C748.421 597.172 748.944 597.295 749.552 597.295C750.16 597.295 750.693 597.172 751.152 596.927C751.611 596.671 751.963 596.34 752.208 595.935C752.443 595.519 752.56 595.082 752.56 594.623C752.56 594.154 752.443 593.716 752.208 593.311C751.973 592.906 751.632 592.58 751.184 592.335C750.725 592.079 750.192 591.951 749.584 591.951ZM745.184 579.779L758.144 585.187V587.075L753.856 585.283L745.184 588.755V586.723L751.904 584.243L745.184 581.667V579.779ZM742.88 559.767L754 563.063V565.127L745.584 567.463L754 569.943L754.016 571.991L742.88 575.143V573.207L751.936 570.903L742.88 568.407V566.359L751.888 564.039L742.88 561.719V559.767ZM749.376 550.182C749.707 550.182 750.005 550.203 750.272 550.246V556.982C750.976 556.929 751.541 556.667 751.968 556.198C752.395 555.729 752.608 555.153 752.608 554.47C752.608 553.489 752.197 552.795 751.376 552.39V550.422C752.187 550.689 752.853 551.174 753.376 551.878C753.888 552.571 754.144 553.435 754.144 554.47C754.144 555.313 753.957 556.07 753.584 556.742C753.2 557.403 752.667 557.926 751.984 558.31C751.291 558.683 750.491 558.87 749.584 558.87C748.677 558.87 747.883 558.689 747.2 558.326C746.507 557.953 745.973 557.435 745.6 556.774C745.227 556.102 745.04 555.334 745.04 554.47C745.04 553.638 745.221 552.897 745.584 552.246C745.947 551.595 746.459 551.089 747.12 550.726C747.771 550.363 748.523 550.182 749.376 550.182ZM748.8 552.086C748.128 552.097 747.589 552.337 747.184 552.806C746.779 553.275 746.576 553.857 746.576 554.55C746.576 555.179 746.779 555.718 747.184 556.166C747.579 556.614 748.117 556.881 748.8 556.966V552.086ZM749.376 540.307C749.707 540.307 750.005 540.328 750.272 540.371V547.107C750.976 547.054 751.541 546.792 751.968 546.323C752.395 545.854 752.608 545.278 752.608 544.595C752.608 543.614 752.197 542.92 751.376 542.515V540.547C752.187 540.814 752.853 541.299 753.376 542.003C753.888 542.696 754.144 543.56 754.144 544.595C754.144 545.438 753.957 546.195 753.584 546.867C753.2 547.528 752.667 548.051 751.984 548.435C751.291 548.808 750.491 548.995 749.584 548.995C748.677 548.995 747.883 548.814 747.2 548.451C746.507 548.078 745.973 547.56 745.6 546.899C745.227 546.227 745.04 545.459 745.04 544.595C745.04 543.763 745.221 543.022 745.584 542.371C745.947 541.72 746.459 541.214 747.12 540.851C747.771 540.488 748.523 540.307 749.376 540.307ZM748.8 542.211C748.128 542.222 747.589 542.462 747.184 542.931C746.779 543.4 746.576 543.982 746.576 544.675C746.576 545.304 746.779 545.843 747.184 546.291C747.579 546.739 748.117 547.006 748.8 547.091V542.211ZM749.6 535.024L754 530.96V533.424L750.208 536.688H754V538.512H742.16V536.688H749.04L745.184 533.488V530.96L749.6 535.024ZM747.44 522.885H748.976V529.461H747.44V522.885ZM745.216 520.565C744.224 520.501 743.451 520.123 742.896 519.429C742.341 518.725 742.064 517.829 742.064 516.741C742.064 515.995 742.197 515.349 742.464 514.805C742.731 514.261 743.093 513.851 743.552 513.573C744.011 513.296 744.528 513.157 745.104 513.157C745.765 513.157 746.331 513.333 746.8 513.685C747.269 514.037 747.584 514.459 747.744 514.949H747.808C748 514.32 748.352 513.829 748.864 513.477C749.365 513.125 750.011 512.949 750.8 512.949C751.429 512.949 751.989 513.093 752.48 513.381C752.971 513.669 753.36 514.096 753.648 514.661C753.925 515.227 754.064 515.904 754.064 516.693C754.064 517.845 753.771 518.795 753.184 519.541C752.587 520.277 751.733 520.672 750.624 520.725V518.965C751.189 518.923 751.653 518.704 752.016 518.309C752.368 517.915 752.544 517.381 752.544 516.709C752.544 516.059 752.368 515.557 752.016 515.205C751.653 514.853 751.189 514.677 750.624 514.677C749.877 514.677 749.349 514.917 749.04 515.397C748.72 515.867 748.56 516.592 748.56 517.573V517.989H747.056V517.557C747.045 516.693 746.901 516.037 746.624 515.589C746.347 515.131 745.909 514.901 745.312 514.901C744.8 514.901 744.395 515.067 744.096 515.397C743.787 515.728 743.632 516.197 743.632 516.805C743.632 517.403 743.787 517.867 744.096 518.197C744.395 518.528 744.768 518.725 745.216 518.789V520.565Z" fill="#195964"/>
<path d="M833.88 601.386H845V603.21H837.384L845 606.602V607.866L837.384 611.274H845V613.098H833.88V611.13L842.6 607.226L833.88 603.338V601.386ZM840.552 599.597C839.667 599.597 838.883 599.415 838.2 599.053C837.517 598.679 836.989 598.178 836.616 597.549C836.232 596.909 836.04 596.205 836.04 595.437C836.04 594.743 836.179 594.141 836.456 593.629C836.723 593.106 837.059 592.69 837.464 592.381H836.184V590.541H845V592.381H843.688C844.104 592.69 844.451 593.111 844.728 593.645C845.005 594.178 845.144 594.786 845.144 595.469C845.144 596.226 844.952 596.919 844.568 597.549C844.173 598.178 843.629 598.679 842.936 599.053C842.232 599.415 841.437 599.597 840.552 599.597ZM840.584 592.381C839.976 592.381 839.448 592.509 839 592.765C838.552 593.01 838.211 593.335 837.976 593.741C837.741 594.146 837.624 594.583 837.624 595.053C837.624 595.522 837.741 595.959 837.976 596.365C838.2 596.77 838.536 597.101 838.984 597.357C839.421 597.602 839.944 597.725 840.552 597.725C841.16 597.725 841.693 597.602 842.152 597.357C842.611 597.101 842.963 596.77 843.208 596.365C843.443 595.949 843.56 595.511 843.56 595.053C843.56 594.583 843.443 594.146 843.208 593.741C842.973 593.335 842.632 593.01 842.184 592.765C841.725 592.509 841.192 592.381 840.584 592.381ZM836.184 580.209L849.144 585.617V587.505L844.856 585.713L836.184 589.185V587.153L842.904 584.673L836.184 582.097V580.209ZM833.88 560.196L845 563.492V565.556L836.584 567.892L845 570.372L845.016 572.42L833.88 575.572V573.636L842.936 571.332L833.88 568.836V566.788L842.888 564.468L833.88 562.148V560.196ZM840.376 550.612C840.707 550.612 841.005 550.633 841.272 550.676V557.412C841.976 557.358 842.541 557.097 842.968 556.628C843.395 556.158 843.608 555.582 843.608 554.9C843.608 553.918 843.197 553.225 842.376 552.82V550.852C843.187 551.118 843.853 551.604 844.376 552.308C844.888 553.001 845.144 553.865 845.144 554.9C845.144 555.742 844.957 556.5 844.584 557.172C844.2 557.833 843.667 558.356 842.984 558.74C842.291 559.113 841.491 559.3 840.584 559.3C839.677 559.3 838.883 559.118 838.2 558.756C837.507 558.382 836.973 557.865 836.6 557.204C836.227 556.532 836.04 555.764 836.04 554.9C836.04 554.068 836.221 553.326 836.584 552.676C836.947 552.025 837.459 551.518 838.12 551.156C838.771 550.793 839.523 550.612 840.376 550.612ZM839.8 552.516C839.128 552.526 838.589 552.766 838.184 553.236C837.779 553.705 837.576 554.286 837.576 554.98C837.576 555.609 837.779 556.148 838.184 556.596C838.579 557.044 839.117 557.31 839.8 557.396V552.516ZM840.376 540.737C840.707 540.737 841.005 540.758 841.272 540.801V547.537C841.976 547.483 842.541 547.222 842.968 546.753C843.395 546.283 843.608 545.707 843.608 545.025C843.608 544.043 843.197 543.35 842.376 542.945V540.977C843.187 541.243 843.853 541.729 844.376 542.433C844.888 543.126 845.144 543.99 845.144 545.025C845.144 545.867 844.957 546.625 844.584 547.297C844.2 547.958 843.667 548.481 842.984 548.865C842.291 549.238 841.491 549.425 840.584 549.425C839.677 549.425 838.883 549.243 838.2 548.881C837.507 548.507 836.973 547.99 836.6 547.329C836.227 546.657 836.04 545.889 836.04 545.025C836.04 544.193 836.221 543.451 836.584 542.801C836.947 542.15 837.459 541.643 838.12 541.281C838.771 540.918 839.523 540.737 840.376 540.737ZM839.8 542.641C839.128 542.651 838.589 542.891 838.184 543.361C837.779 543.83 837.576 544.411 837.576 545.105C837.576 545.734 837.779 546.273 838.184 546.721C838.579 547.169 839.117 547.435 839.8 547.521V542.641ZM840.6 535.454L845 531.39V533.854L841.208 537.118H845V538.942H833.16V537.118H840.04L836.184 533.918V531.39L840.6 535.454ZM838.44 523.314H839.976V529.89H838.44V523.314ZM842.568 521.187H841.192L833.48 515.811V513.603H840.984V512.115H842.568V513.603H845V515.395H842.568V521.187ZM835.336 515.315L840.984 519.091V515.315H835.336Z" fill="#195964"/>
<path d="M924.88 607.362H932.896C933.888 607.362 934.672 607.666 935.248 608.274C935.824 608.872 936.112 609.661 936.112 610.642C936.112 611.624 935.824 612.418 935.248 613.026C934.672 613.624 933.888 613.922 932.896 613.922V612.082C933.387 612.072 933.776 611.949 934.064 611.714C934.352 611.469 934.496 611.112 934.496 610.642C934.496 610.173 934.352 609.816 934.064 609.57C933.765 609.325 933.376 609.202 932.896 609.202H924.88V607.362ZM927.184 596.411H936V598.235H934.96C935.323 598.523 935.611 598.902 935.824 599.371C936.027 599.83 936.128 600.32 936.128 600.843C936.128 601.536 935.984 602.16 935.696 602.715C935.408 603.259 934.981 603.691 934.416 604.011C933.851 604.32 933.168 604.475 932.368 604.475H927.184V602.667H932.096C932.885 602.667 933.493 602.47 933.92 602.075C934.336 601.68 934.544 601.142 934.544 600.459C934.544 599.776 934.336 599.238 933.92 598.843C933.493 598.438 932.885 598.235 932.096 598.235H927.184V596.411ZM927.04 589.556C927.04 588.863 927.184 588.244 927.472 587.7C927.76 587.146 928.187 586.714 928.752 586.404C929.317 586.095 930 585.94 930.8 585.94H936V587.748H931.072C930.283 587.748 929.68 587.946 929.264 588.34C928.837 588.735 928.624 589.274 928.624 589.956C928.624 590.639 928.837 591.183 929.264 591.588C929.68 591.983 930.283 592.18 931.072 592.18H936V594.004H927.184V592.18H928.192C927.829 591.882 927.547 591.503 927.344 591.044C927.141 590.575 927.04 590.079 927.04 589.556ZM931.376 575.534C931.707 575.534 932.005 575.555 932.272 575.598V582.334C932.976 582.28 933.541 582.019 933.968 581.55C934.395 581.08 934.608 580.504 934.608 579.822C934.608 578.84 934.197 578.147 933.376 577.742V575.774C934.187 576.04 934.853 576.526 935.376 577.23C935.888 577.923 936.144 578.787 936.144 579.822C936.144 580.664 935.957 581.422 935.584 582.094C935.2 582.755 934.667 583.278 933.984 583.662C933.291 584.035 932.491 584.222 931.584 584.222C930.677 584.222 929.883 584.04 929.2 583.678C928.507 583.304 927.973 582.787 927.6 582.126C927.227 581.454 927.04 580.686 927.04 579.822C927.04 578.99 927.221 578.248 927.584 577.598C927.947 576.947 928.459 576.44 929.12 576.078C929.771 575.715 930.523 575.534 931.376 575.534ZM930.8 577.438C930.128 577.448 929.589 577.688 929.184 578.158C928.779 578.627 928.576 579.208 928.576 579.902C928.576 580.531 928.779 581.07 929.184 581.518C929.579 581.966 930.117 582.232 930.8 582.318V577.438ZM924.88 555.102L936 558.398V560.462L927.584 562.798L936 565.278L936.016 567.326L924.88 570.478V568.542L933.936 566.238L924.88 563.742V561.694L933.888 559.374L924.88 557.054V555.102ZM931.376 545.518C931.707 545.518 932.005 545.539 932.272 545.582V552.318C932.976 552.265 933.541 552.003 933.968 551.534C934.395 551.065 934.608 550.489 934.608 549.806C934.608 548.825 934.197 548.131 933.376 547.726V545.758C934.187 546.025 934.853 546.51 935.376 547.214C935.888 547.907 936.144 548.771 936.144 549.806C936.144 550.649 935.957 551.406 935.584 552.078C935.2 552.739 934.667 553.262 933.984 553.646C933.291 554.019 932.491 554.206 931.584 554.206C930.677 554.206 929.883 554.025 929.2 553.662C928.507 553.289 927.973 552.771 927.6 552.11C927.227 551.438 927.04 550.67 927.04 549.806C927.04 548.974 927.221 548.233 927.584 547.582C927.947 546.931 928.459 546.425 929.12 546.062C929.771 545.699 930.523 545.518 931.376 545.518ZM930.8 547.422C930.128 547.433 929.589 547.673 929.184 548.142C928.779 548.611 928.576 549.193 928.576 549.886C928.576 550.515 928.779 551.054 929.184 551.502C929.579 551.95 930.117 552.217 930.8 552.302V547.422ZM931.376 535.643C931.707 535.643 932.005 535.664 932.272 535.707V542.443C932.976 542.39 933.541 542.128 933.968 541.659C934.395 541.19 934.608 540.614 934.608 539.931C934.608 538.95 934.197 538.256 933.376 537.851V535.883C934.187 536.15 934.853 536.635 935.376 537.339C935.888 538.032 936.144 538.896 936.144 539.931C936.144 540.774 935.957 541.531 935.584 542.203C935.2 542.864 934.667 543.387 933.984 543.771C933.291 544.144 932.491 544.331 931.584 544.331C930.677 544.331 929.883 544.15 929.2 543.787C928.507 543.414 927.973 542.896 927.6 542.235C927.227 541.563 927.04 540.795 927.04 539.931C927.04 539.099 927.221 538.358 927.584 537.707C927.947 537.056 928.459 536.55 929.12 536.187C929.771 535.824 930.523 535.643 931.376 535.643ZM930.8 537.547C930.128 537.558 929.589 537.798 929.184 538.267C928.779 538.736 928.576 539.318 928.576 540.011C928.576 540.64 928.779 541.179 929.184 541.627C929.579 542.075 930.117 542.342 930.8 542.427V537.547ZM931.6 530.36L936 526.296V528.76L932.208 532.024H936V533.848H924.16V532.024H931.04L927.184 528.824V526.296L931.6 530.36ZM929.44 518.221H930.976V524.797H929.44V518.221ZM926 516.109H924.336V512.781H936V514.621H926V516.109Z" fill="#195964"/>
<path d="M79.0121 486.293C79.0121 484.217 79.3601 482.597 80.0561 481.433C80.7641 480.257 81.9761 479.669 83.6921 479.669C85.4081 479.669 86.6141 480.257 87.3101 481.433C88.0181 482.597 88.3721 484.217 88.3721 486.293C88.3721 488.393 88.0181 490.037 87.3101 491.225C86.6141 492.401 85.4081 492.989 83.6921 492.989C81.9761 492.989 80.7641 492.401 80.0561 491.225C79.3601 490.037 79.0121 488.393 79.0121 486.293ZM86.3561 486.293C86.3561 485.321 86.2901 484.499 86.1581 483.827C86.0381 483.155 85.7861 482.609 85.4021 482.189C85.0181 481.757 84.4481 481.541 83.6921 481.541C82.9361 481.541 82.3661 481.757 81.9821 482.189C81.5981 482.609 81.3401 483.155 81.2081 483.827C81.0881 484.499 81.0281 485.321 81.0281 486.293C81.0281 487.301 81.0881 488.147 81.2081 488.831C81.3281 489.515 81.5801 490.067 81.9641 490.487C82.3601 490.907 82.9361 491.117 83.6921 491.117C84.4481 491.117 85.0181 490.907 85.4021 490.487C85.7981 490.067 86.0561 489.515 86.1761 488.831C86.2961 488.147 86.3561 487.301 86.3561 486.293Z" fill="#195964"/>
<path d="M36.6578 393.416C36.6578 392.42 36.8618 391.538 37.2698 390.77C37.6898 390.002 38.2538 389.408 38.9618 388.988C39.6818 388.556 40.4738 388.34 41.3378 388.34C42.1178 388.34 42.7958 388.496 43.3718 388.808C43.9598 389.108 44.4278 389.486 44.7758 389.942V388.502H46.8458V398.42H44.7758V396.944C44.4278 397.412 43.9538 397.802 43.3538 398.114C42.7538 398.426 42.0698 398.582 41.3018 398.582C40.4498 398.582 39.6698 398.366 38.9618 397.934C38.2538 397.49 37.6898 396.878 37.2698 396.098C36.8618 395.306 36.6578 394.412 36.6578 393.416ZM44.7758 393.452C44.7758 392.768 44.6318 392.174 44.3438 391.67C44.0678 391.166 43.7018 390.782 43.2458 390.518C42.7898 390.254 42.2978 390.122 41.7698 390.122C41.2418 390.122 40.7498 390.254 40.2938 390.518C39.8378 390.77 39.4658 391.148 39.1778 391.652C38.9018 392.144 38.7638 392.732 38.7638 393.416C38.7638 394.1 38.9018 394.7 39.1778 395.216C39.4658 395.732 39.8378 396.128 40.2938 396.404C40.7618 396.668 41.2538 396.8 41.7698 396.8C42.2978 396.8 42.7898 396.668 43.2458 396.404C43.7018 396.14 44.0678 395.756 44.3438 395.252C44.6318 394.736 44.7758 394.136 44.7758 393.452ZM54.545 388.34C55.325 388.34 56.021 388.502 56.633 388.826C57.257 389.15 57.743 389.63 58.091 390.266C58.439 390.902 58.613 391.67 58.613 392.57V398.42H56.579V392.876C56.579 391.988 56.357 391.31 55.913 390.842C55.469 390.362 54.863 390.122 54.095 390.122C53.327 390.122 52.715 390.362 52.259 390.842C51.815 391.31 51.593 391.988 51.593 392.876V398.42H49.541V388.502H51.593V389.636C51.929 389.228 52.355 388.91 52.871 388.682C53.399 388.454 53.957 388.34 54.545 388.34ZM65.2265 388.34C65.9945 388.34 66.6725 388.496 67.2605 388.808C67.8605 389.108 68.3285 389.486 68.6645 389.942V388.502H70.7345V398.582C70.7345 399.494 70.5425 400.304 70.1585 401.012C69.7745 401.732 69.2165 402.296 68.4845 402.704C67.7645 403.112 66.9005 403.316 65.8925 403.316C64.5485 403.316 63.4325 402.998 62.5445 402.362C61.6565 401.738 61.1525 400.886 61.0325 399.806H63.0665C63.2225 400.322 63.5525 400.736 64.0565 401.048C64.5725 401.372 65.1845 401.534 65.8925 401.534C66.7205 401.534 67.3865 401.282 67.8905 400.778C68.4065 400.274 68.6645 399.542 68.6645 398.582V396.926C68.3165 397.394 67.8425 397.79 67.2425 398.114C66.6545 398.426 65.9825 398.582 65.2265 398.582C64.3625 398.582 63.5705 398.366 62.8505 397.934C62.1425 397.49 61.5785 396.878 61.1585 396.098C60.7505 395.306 60.5465 394.412 60.5465 393.416C60.5465 392.42 60.7505 391.538 61.1585 390.77C61.5785 390.002 62.1425 389.408 62.8505 388.988C63.5705 388.556 64.3625 388.34 65.2265 388.34ZM68.6645 393.452C68.6645 392.768 68.5205 392.174 68.2325 391.67C67.9565 391.166 67.5905 390.782 67.1345 390.518C66.6785 390.254 66.1865 390.122 65.6585 390.122C65.1305 390.122 64.6385 390.254 64.1825 390.518C63.7265 390.77 63.3545 391.148 63.0665 391.652C62.7905 392.144 62.6525 392.732 62.6525 393.416C62.6525 394.1 62.7905 394.7 63.0665 395.216C63.3545 395.732 63.7265 396.128 64.1825 396.404C64.6505 396.668 65.1425 396.8 65.6585 396.8C66.1865 396.8 66.6785 396.668 67.1345 396.404C67.5905 396.14 67.9565 395.756 68.2325 395.252C68.5205 394.736 68.6645 394.136 68.6645 393.452ZM75.4817 389.942C75.7817 389.438 76.1777 389.048 76.6697 388.772C77.1737 388.484 77.7677 388.34 78.4517 388.34V390.464H77.9297C77.1257 390.464 76.5137 390.668 76.0937 391.076C75.6857 391.484 75.4817 392.192 75.4817 393.2V398.42H73.4297V388.502H75.4817V389.942ZM89.2659 388.502L83.1819 403.082H81.0579L83.0739 398.258L79.1679 388.502H81.4539L84.2439 396.062L87.1419 388.502H89.2659Z" fill="#195964"/>
<path d="M60.3992 303.977C59.6192 303.977 58.9172 303.839 58.2932 303.563C57.6812 303.275 57.1952 302.891 56.8352 302.411C56.4752 301.919 56.2832 301.373 56.2592 300.773H58.3832C58.4192 301.193 58.6172 301.547 58.9772 301.835C59.3492 302.111 59.8112 302.249 60.3632 302.249C60.9392 302.249 61.3832 302.141 61.6952 301.925C62.0192 301.697 62.1812 301.409 62.1812 301.061C62.1812 300.689 62.0012 300.413 61.6412 300.233C61.2932 300.053 60.7352 299.855 59.9672 299.639C59.2232 299.435 58.6172 299.237 58.1492 299.045C57.6812 298.853 57.2732 298.559 56.9252 298.163C56.5892 297.767 56.4212 297.245 56.4212 296.597C56.4212 296.069 56.5772 295.589 56.8892 295.157C57.2012 294.713 57.6452 294.365 58.2212 294.113C58.8092 293.861 59.4812 293.735 60.2372 293.735C61.3652 293.735 62.2712 294.023 62.9552 294.599C63.6512 295.163 64.0232 295.937 64.0712 296.921H62.0192C61.9832 296.477 61.8032 296.123 61.4792 295.859C61.1552 295.595 60.7172 295.463 60.1652 295.463C59.6252 295.463 59.2112 295.565 58.9232 295.769C58.6352 295.973 58.4912 296.243 58.4912 296.579C58.4912 296.843 58.5872 297.065 58.7792 297.245C58.9712 297.425 59.2052 297.569 59.4812 297.677C59.7572 297.773 60.1652 297.899 60.7052 298.055C61.4252 298.247 62.0132 298.445 62.4692 298.649C62.9372 298.841 63.3392 299.129 63.6752 299.513C64.0112 299.897 64.1852 300.407 64.1972 301.043C64.1972 301.607 64.0412 302.111 63.7292 302.555C63.4172 302.999 62.9732 303.347 62.3972 303.599C61.8332 303.851 61.1672 303.977 60.3992 303.977ZM65.7305 298.811C65.7305 297.815 65.9345 296.933 66.3425 296.165C66.7625 295.397 67.3265 294.803 68.0345 294.383C68.7545 293.951 69.5465 293.735 70.4105 293.735C71.1905 293.735 71.8685 293.891 72.4445 294.203C73.0325 294.503 73.5005 294.881 73.8485 295.337V293.897H75.9185V303.815H73.8485V302.339C73.5005 302.807 73.0265 303.197 72.4265 303.509C71.8265 303.821 71.1425 303.977 70.3745 303.977C69.5225 303.977 68.7425 303.761 68.0345 303.329C67.3265 302.885 66.7625 302.273 66.3425 301.493C65.9345 300.701 65.7305 299.807 65.7305 298.811ZM73.8485 298.847C73.8485 298.163 73.7045 297.569 73.4165 297.065C73.1405 296.561 72.7745 296.177 72.3185 295.913C71.8625 295.649 71.3705 295.517 70.8425 295.517C70.3145 295.517 69.8225 295.649 69.3665 295.913C68.9105 296.165 68.5385 296.543 68.2505 297.047C67.9745 297.539 67.8365 298.127 67.8365 298.811C67.8365 299.495 67.9745 300.095 68.2505 300.611C68.5385 301.127 68.9105 301.523 69.3665 301.799C69.8345 302.063 70.3265 302.195 70.8425 302.195C71.3705 302.195 71.8625 302.063 72.3185 301.799C72.7745 301.535 73.1405 301.151 73.4165 300.647C73.7045 300.131 73.8485 299.531 73.8485 298.847ZM77.9297 298.811C77.9297 297.815 78.1337 296.933 78.5417 296.165C78.9617 295.397 79.5257 294.803 80.2337 294.383C80.9537 293.951 81.7517 293.735 82.6277 293.735C83.2757 293.735 83.9117 293.879 84.5357 294.167C85.1717 294.443 85.6757 294.815 86.0477 295.283V290.495H88.1177V303.815H86.0477V302.321C85.7117 302.801 85.2437 303.197 84.6437 303.509C84.0557 303.821 83.3777 303.977 82.6097 303.977C81.7457 303.977 80.9537 303.761 80.2337 303.329C79.5257 302.885 78.9617 302.273 78.5417 301.493C78.1337 300.701 77.9297 299.807 77.9297 298.811ZM86.0477 298.847C86.0477 298.163 85.9037 297.569 85.6157 297.065C85.3397 296.561 84.9737 296.177 84.5177 295.913C84.0617 295.649 83.5697 295.517 83.0417 295.517C82.5137 295.517 82.0217 295.649 81.5657 295.913C81.1097 296.165 80.7377 296.543 80.4497 297.047C80.1737 297.539 80.0357 298.127 80.0357 298.811C80.0357 299.495 80.1737 300.095 80.4497 300.611C80.7377 301.127 81.1097 301.523 81.5657 301.799C82.0337 302.063 82.5257 302.195 83.0417 302.195C83.5697 302.195 84.0617 302.063 84.5177 301.799C84.9737 301.535 85.3397 301.151 85.6157 300.647C85.9037 300.131 86.0477 299.531 86.0477 298.847Z" fill="#195964"/>
<path d="M30.7778 199.13C31.5578 199.13 32.2538 199.292 32.8658 199.616C33.4898 199.94 33.9758 200.42 34.3238 201.056C34.6718 201.692 34.8458 202.46 34.8458 203.36V209.21H32.8118V203.666C32.8118 202.778 32.5898 202.1 32.1458 201.632C31.7018 201.152 31.0958 200.912 30.3278 200.912C29.5598 200.912 28.9478 201.152 28.4918 201.632C28.0478 202.1 27.8258 202.778 27.8258 203.666V209.21H25.7738V199.292H27.8258V200.426C28.1618 200.018 28.5878 199.7 29.1038 199.472C29.6318 199.244 30.1898 199.13 30.7778 199.13ZM46.5533 204.008C46.5533 204.38 46.5293 204.716 46.4813 205.016H38.9033C38.9633 205.808 39.2573 206.444 39.7853 206.924C40.3133 207.404 40.9613 207.644 41.7293 207.644C42.8333 207.644 43.6133 207.182 44.0693 206.258H46.2833C45.9833 207.17 45.4373 207.92 44.6453 208.508C43.8653 209.084 42.8933 209.372 41.7293 209.372C40.7813 209.372 39.9293 209.162 39.1733 208.742C38.4293 208.31 37.8413 207.71 37.4093 206.942C36.9893 206.162 36.7793 205.262 36.7793 204.242C36.7793 203.222 36.9833 202.328 37.3913 201.56C37.8113 200.78 38.3933 200.18 39.1373 199.76C39.8933 199.34 40.7573 199.13 41.7293 199.13C42.6653 199.13 43.4993 199.334 44.2313 199.742C44.9633 200.15 45.5333 200.726 45.9413 201.47C46.3493 202.202 46.5533 203.048 46.5533 204.008ZM44.4113 203.36C44.3993 202.604 44.1293 201.998 43.6013 201.542C43.0733 201.086 42.4193 200.858 41.6393 200.858C40.9313 200.858 40.3253 201.086 39.8213 201.542C39.3173 201.986 39.0173 202.592 38.9213 203.36H44.4113ZM57.5547 199.292V209.21H55.5027V208.04C55.1787 208.448 54.7527 208.772 54.2247 209.012C53.7087 209.24 53.1567 209.354 52.5687 209.354C51.7887 209.354 51.0867 209.192 50.4627 208.868C49.8507 208.544 49.3647 208.064 49.0047 207.428C48.6567 206.792 48.4827 206.024 48.4827 205.124V199.292H50.5167V204.818C50.5167 205.706 50.7387 206.39 51.1827 206.87C51.6267 207.338 52.2327 207.572 53.0007 207.572C53.7687 207.572 54.3747 207.338 54.8187 206.87C55.2747 206.39 55.5027 205.706 55.5027 204.818V199.292H57.5547ZM62.6561 200.966V206.456C62.6561 206.828 62.7401 207.098 62.9081 207.266C63.0881 207.422 63.3881 207.5 63.8081 207.5H65.0681V209.21H63.4481C62.5241 209.21 61.8161 208.994 61.3241 208.562C60.8321 208.13 60.5861 207.428 60.5861 206.456V200.966H59.4161V199.292H60.5861V196.826H62.6561V199.292H65.0681V200.966H62.6561ZM69.0114 200.732C69.3114 200.228 69.7074 199.838 70.1994 199.562C70.7034 199.274 71.2974 199.13 71.9814 199.13V201.254H71.4594C70.6554 201.254 70.0434 201.458 69.6234 201.866C69.2154 202.274 69.0114 202.982 69.0114 203.99V209.21H66.9594V199.292H69.0114V200.732ZM73.1836 204.206C73.1836 203.21 73.3876 202.328 73.7956 201.56C74.2156 200.792 74.7796 200.198 75.4876 199.778C76.2076 199.346 76.9996 199.13 77.8636 199.13C78.6436 199.13 79.3216 199.286 79.8976 199.598C80.4856 199.898 80.9536 200.276 81.3016 200.732V199.292H83.3716V209.21H81.3016V207.734C80.9536 208.202 80.4796 208.592 79.8796 208.904C79.2796 209.216 78.5956 209.372 77.8276 209.372C76.9756 209.372 76.1956 209.156 75.4876 208.724C74.7796 208.28 74.2156 207.668 73.7956 206.888C73.3876 206.096 73.1836 205.202 73.1836 204.206ZM81.3016 204.242C81.3016 203.558 81.1576 202.964 80.8696 202.46C80.5936 201.956 80.2276 201.572 79.7716 201.308C79.3156 201.044 78.8236 200.912 78.2956 200.912C77.7676 200.912 77.2756 201.044 76.8196 201.308C76.3636 201.56 75.9916 201.938 75.7036 202.442C75.4276 202.934 75.2896 203.522 75.2896 204.206C75.2896 204.89 75.4276 205.49 75.7036 206.006C75.9916 206.522 76.3636 206.918 76.8196 207.194C77.2876 207.458 77.7796 207.59 78.2956 207.59C78.8236 207.59 79.3156 207.458 79.7716 207.194C80.2276 206.93 80.5936 206.546 80.8696 206.042C81.1576 205.526 81.3016 204.926 81.3016 204.242ZM88.1188 195.89V209.21H86.0668V195.89H88.1188Z" fill="#195964"/>
<path d="M37.1792 104.525C37.9352 104.525 38.6072 104.687 39.1952 105.011C39.7952 105.335 40.2632 105.815 40.5992 106.451C40.9472 107.087 41.1212 107.855 41.1212 108.755V114.605H39.0872V109.061C39.0872 108.173 38.8652 107.495 38.4212 107.027C37.9772 106.547 37.3712 106.307 36.6032 106.307C35.8352 106.307 35.2232 106.547 34.7672 107.027C34.3232 107.495 34.1012 108.173 34.1012 109.061V114.605H32.0492V101.285H34.1012V105.839C34.4492 105.419 34.8872 105.095 35.4152 104.867C35.9552 104.639 36.5432 104.525 37.1792 104.525ZM43.0547 109.601C43.0547 108.605 43.2587 107.723 43.6667 106.955C44.0867 106.187 44.6507 105.593 45.3587 105.173C46.0787 104.741 46.8707 104.525 47.7347 104.525C48.5147 104.525 49.1927 104.681 49.7687 104.993C50.3567 105.293 50.8247 105.671 51.1727 106.127V104.687H53.2427V114.605H51.1727V113.129C50.8247 113.597 50.3507 113.987 49.7507 114.299C49.1507 114.611 48.4667 114.767 47.6987 114.767C46.8467 114.767 46.0667 114.551 45.3587 114.119C44.6507 113.675 44.0867 113.063 43.6667 112.283C43.2587 111.491 43.0547 110.597 43.0547 109.601ZM51.1727 109.637C51.1727 108.953 51.0287 108.359 50.7407 107.855C50.4647 107.351 50.0987 106.967 49.6427 106.703C49.1867 106.439 48.6947 106.307 48.1667 106.307C47.6387 106.307 47.1467 106.439 46.6907 106.703C46.2347 106.955 45.8627 107.333 45.5747 107.837C45.2987 108.329 45.1607 108.917 45.1607 109.601C45.1607 110.285 45.2987 110.885 45.5747 111.401C45.8627 111.917 46.2347 112.313 46.6907 112.589C47.1587 112.853 47.6507 112.985 48.1667 112.985C48.6947 112.985 49.1867 112.853 49.6427 112.589C50.0987 112.325 50.4647 111.941 50.7407 111.437C51.0287 110.921 51.1727 110.321 51.1727 109.637ZM57.9899 106.145C58.3379 105.689 58.8119 105.305 59.4119 104.993C60.0119 104.681 60.6899 104.525 61.4459 104.525C62.3099 104.525 63.0959 104.741 63.8039 105.173C64.5239 105.593 65.0879 106.187 65.4959 106.955C65.9039 107.723 66.1079 108.605 66.1079 109.601C66.1079 110.597 65.9039 111.491 65.4959 112.283C65.0879 113.063 64.5239 113.675 63.8039 114.119C63.0959 114.551 62.3099 114.767 61.4459 114.767C60.6899 114.767 60.0179 114.617 59.4299 114.317C58.8419 114.005 58.3619 113.621 57.9899 113.165V119.321H55.9379V104.687H57.9899V106.145ZM64.0199 109.601C64.0199 108.917 63.8759 108.329 63.5879 107.837C63.3119 107.333 62.9399 106.955 62.4719 106.703C62.0159 106.439 61.5239 106.307 60.9959 106.307C60.4799 106.307 59.9879 106.439 59.5199 106.703C59.0639 106.967 58.6919 107.351 58.4039 107.855C58.1279 108.359 57.9899 108.953 57.9899 109.637C57.9899 110.321 58.1279 110.921 58.4039 111.437C58.6919 111.941 59.0639 112.325 59.5199 112.589C59.9879 112.853 60.4799 112.985 60.9959 112.985C61.5239 112.985 62.0159 112.853 62.4719 112.589C62.9399 112.313 63.3119 111.917 63.5879 111.401C63.8759 110.885 64.0199 110.285 64.0199 109.601ZM70.1891 106.145C70.5371 105.689 71.0111 105.305 71.6111 104.993C72.2111 104.681 72.8891 104.525 73.6451 104.525C74.5091 104.525 75.2951 104.741 76.0031 105.173C76.7231 105.593 77.2871 106.187 77.6951 106.955C78.1031 107.723 78.3071 108.605 78.3071 109.601C78.3071 110.597 78.1031 111.491 77.6951 112.283C77.2871 113.063 76.7231 113.675 76.0031 114.119C75.2951 114.551 74.5091 114.767 73.6451 114.767C72.8891 114.767 72.2171 114.617 71.6291 114.317C71.0411 114.005 70.5611 113.621 70.1891 113.165V119.321H68.1371V104.687H70.1891V106.145ZM76.2191 109.601C76.2191 108.917 76.0751 108.329 75.7871 107.837C75.5111 107.333 75.1391 106.955 74.6711 106.703C74.2151 106.439 73.7231 106.307 73.1951 106.307C72.6791 106.307 72.1871 106.439 71.7191 106.703C71.2631 106.967 70.8911 107.351 70.6031 107.855C70.3271 108.359 70.1891 108.953 70.1891 109.637C70.1891 110.321 70.3271 110.921 70.6031 111.437C70.8911 111.941 71.2631 112.325 71.7191 112.589C72.1871 112.853 72.6791 112.985 73.1951 112.985C73.7231 112.985 74.2151 112.853 74.6711 112.589C75.1391 112.313 75.5111 111.917 75.7871 111.401C76.0751 110.885 76.2191 110.285 76.2191 109.601ZM89.2643 104.687L83.1803 119.267H81.0563L83.0723 114.443L79.1663 104.687H81.4523L84.2423 112.247L87.1403 104.687H89.2643Z" fill="#195964"/>
<path d="M34.2662 14.798C34.2662 15.17 34.2422 15.506 34.1942 15.806H26.6162C26.6762 16.598 26.9702 17.234 27.4982 17.714C28.0262 18.194 28.6742 18.434 29.4422 18.434C30.5462 18.434 31.3262 17.972 31.7822 17.048H33.9962C33.6962 17.96 33.1502 18.71 32.3582 19.298C31.5782 19.874 30.6062 20.162 29.4422 20.162C28.4942 20.162 27.6422 19.952 26.8862 19.532C26.1422 19.1 25.5542 18.5 25.1222 17.732C24.7022 16.952 24.4922 16.052 24.4922 15.032C24.4922 14.012 24.6962 13.118 25.1042 12.35C25.5242 11.57 26.1062 10.97 26.8502 10.55C27.6062 10.13 28.4702 9.92 29.4422 9.92C30.3782 9.92 31.2122 10.124 31.9442 10.532C32.6762 10.94 33.2462 11.516 33.6542 12.26C34.0622 12.992 34.2662 13.838 34.2662 14.798ZM32.1242 14.15C32.1122 13.394 31.8422 12.788 31.3142 12.332C30.7862 11.876 30.1322 11.648 29.3522 11.648C28.6442 11.648 28.0382 11.876 27.5342 12.332C27.0302 12.776 26.7302 13.382 26.6342 14.15H32.1242ZM40.5335 14.978L43.7375 20H41.4155L39.2735 16.634L37.2575 20H35.1155L38.3195 15.122L35.1155 10.082H37.4375L39.5795 13.448L41.5955 10.082H43.7375L40.5335 14.978ZM44.584 15.032C44.584 14.012 44.788 13.118 45.196 12.35C45.616 11.57 46.192 10.97 46.924 10.55C47.656 10.13 48.496 9.92 49.444 9.92C50.644 9.92 51.634 10.208 52.414 10.784C53.206 11.348 53.74 12.158 54.016 13.214H51.802C51.622 12.722 51.334 12.338 50.938 12.062C50.542 11.786 50.044 11.648 49.444 11.648C48.604 11.648 47.932 11.948 47.428 12.548C46.936 13.136 46.69 13.964 46.69 15.032C46.69 16.1 46.936 16.934 47.428 17.534C47.932 18.134 48.604 18.434 49.444 18.434C50.632 18.434 51.418 17.912 51.802 16.868H54.016C53.728 17.876 53.188 18.68 52.396 19.28C51.604 19.868 50.62 20.162 49.444 20.162C48.496 20.162 47.656 19.952 46.924 19.532C46.192 19.1 45.616 18.5 45.196 17.732C44.788 16.952 44.584 16.052 44.584 15.032ZM57.1049 8.768C56.7329 8.768 56.4209 8.642 56.1689 8.39C55.9169 8.138 55.7909 7.826 55.7909 7.454C55.7909 7.082 55.9169 6.77 56.1689 6.518C56.4209 6.266 56.7329 6.14 57.1049 6.14C57.4649 6.14 57.7709 6.266 58.0229 6.518C58.2749 6.77 58.4009 7.082 58.4009 7.454C58.4009 7.826 58.2749 8.138 58.0229 8.39C57.7709 8.642 57.4649 8.768 57.1049 8.768ZM58.1129 10.082V20H56.0609V10.082H58.1129ZM63.201 11.756V17.246C63.201 17.618 63.285 17.888 63.453 18.056C63.633 18.212 63.933 18.29 64.353 18.29H65.613V20H63.993C63.069 20 62.361 19.784 61.869 19.352C61.377 18.92 61.131 18.218 61.131 17.246V11.756H59.961V10.082H61.131V7.616H63.201V10.082H65.613V11.756H63.201ZM76.5943 14.798C76.5943 15.17 76.5703 15.506 76.5223 15.806H68.9443C69.0043 16.598 69.2983 17.234 69.8263 17.714C70.3543 18.194 71.0023 18.434 71.7703 18.434C72.8743 18.434 73.6543 17.972 74.1103 17.048H76.3243C76.0243 17.96 75.4783 18.71 74.6863 19.298C73.9063 19.874 72.9343 20.162 71.7703 20.162C70.8223 20.162 69.9703 19.952 69.2143 19.532C68.4703 19.1 67.8823 18.5 67.4503 17.732C67.0303 16.952 66.8203 16.052 66.8203 15.032C66.8203 14.012 67.0243 13.118 67.4323 12.35C67.8523 11.57 68.4343 10.97 69.1783 10.55C69.9343 10.13 70.7983 9.92 71.7703 9.92C72.7063 9.92 73.5403 10.124 74.2723 10.532C75.0043 10.94 75.5743 11.516 75.9823 12.26C76.3903 12.992 76.5943 13.838 76.5943 14.798ZM74.4523 14.15C74.4403 13.394 74.1703 12.788 73.6423 12.332C73.1143 11.876 72.4603 11.648 71.6803 11.648C70.9723 11.648 70.3663 11.876 69.8623 12.332C69.3583 12.776 69.0583 13.382 68.9623 14.15H74.4523ZM77.9297 14.996C77.9297 14 78.1337 13.118 78.5417 12.35C78.9617 11.582 79.5257 10.988 80.2337 10.568C80.9537 10.136 81.7517 9.92 82.6277 9.92C83.2757 9.92 83.9117 10.064 84.5357 10.352C85.1717 10.628 85.6757 11 86.0477 11.468V6.68H88.1177V20H86.0477V18.506C85.7117 18.986 85.2437 19.382 84.6437 19.694C84.0557 20.006 83.3777 20.162 82.6097 20.162C81.7457 20.162 80.9537 19.946 80.2337 19.514C79.5257 19.07 78.9617 18.458 78.5417 17.678C78.1337 16.886 77.9297 15.992 77.9297 14.996ZM86.0477 15.032C86.0477 14.348 85.9037 13.754 85.6157 13.25C85.3397 12.746 84.9737 12.362 84.5177 12.098C84.0617 11.834 83.5697 11.702 83.0417 11.702C82.5137 11.702 82.0217 11.834 81.5657 12.098C81.1097 12.35 80.7377 12.728 80.4497 13.232C80.1737 13.724 80.0357 14.312 80.0357 14.996C80.0357 15.68 80.1737 16.28 80.4497 16.796C80.7377 17.312 81.1097 17.708 81.5657 17.984C82.0337 18.248 82.5257 18.38 83.0417 18.38C83.5697 18.38 84.0617 18.248 84.5177 17.984C84.9737 17.72 85.3397 17.336 85.6157 16.832C85.9037 16.316 86.0477 15.716 86.0477 15.032Z" fill="#195964"/>
<defs>
<linearGradient id="paint0_linear_588_2752" x1="524.681" y1="20.5" x2="524.681" y2="393.28" gradientUnits="userSpaceOnUse">
<stop offset="1" stop-color="#33B4CA"/>
</linearGradient>
</defs>
</svg>
