<svg width="46" height="28" viewBox="0 0 46 28" fill="none" xmlns="http://www.w3.org/2000/svg">
<g id="Group 39464">
<path id="A" d="M0.958984 25.3701L8.34948 3.52124H14.3909L21.7814 25.3701H16.8251L15.3587 20.9124H7.35235L5.88598 25.3701H0.958984ZM8.61342 16.9532H14.0976L11.3702 8.53622L8.61342 16.9532Z" fill="#195964"/>
<path id="B" d="M27.7109 25.3704V3.52148H36.9491C41.4655 3.52148 44.1343 5.897 44.1343 9.91485C44.1343 11.2639 43.665 12.525 42.5799 13.5808C44.5155 14.9005 45.0434 16.6601 45.0434 18.5664C45.0434 22.8775 42.0227 25.3704 36.9491 25.3704H27.7109ZM32.2567 11.7331H37.2717C38.6794 11.7331 39.5885 10.8533 39.5885 9.53359C39.5885 8.21386 38.6794 7.33404 37.2717 7.33404H32.2567V11.7331ZM32.2567 21.4112H37.4769C39.2952 21.4112 40.4977 20.2674 40.4977 18.5664C40.4977 16.8361 39.2952 15.6923 37.4769 15.6923H32.2567V21.4112Z" fill="#2E6C76"/>
<path id="Vector 2" d="M38.3419 0.232422H28.9153L11.1094 27.465H20.536L38.3419 0.232422Z" fill="#195964"/>
</g>
</svg>
