<svg width="185" height="185" viewBox="0 0 185 185" fill="none" xmlns="http://www.w3.org/2000/svg">
<g id="Group 1171274869">
<circle id="Ellipse 1117" cx="92.5" cy="92.5" r="92.5" fill="#67D5B1" fill-opacity="0.99"/>
<path id="Vector" d="M75.4599 115.156L135.491 55.125C136.908 53.7083 138.561 53 140.45 53C142.338 53 143.991 53.7083 145.408 55.125C146.825 56.5417 147.533 58.2251 147.533 60.1754C147.533 62.1257 146.825 63.8068 145.408 65.2188L80.4183 130.385C79.0016 131.802 77.3488 132.51 75.4599 132.51C73.571 132.51 71.9183 131.802 70.5016 130.385L40.0433 99.9271C38.6266 98.5104 37.9466 96.8293 38.0033 94.8838C38.0599 92.9382 38.799 91.2547 40.2204 89.8333C41.6417 88.4119 43.3252 87.7036 45.2708 87.7083C47.2163 87.7131 48.8974 88.4214 50.3141 89.8333L75.4599 115.156Z" fill="white"/>
</g>
</svg>
