<svg width="508" height="538" viewBox="0 0 508 538" fill="none" xmlns="http://www.w3.org/2000/svg">
<path fill-rule="evenodd" clip-rule="evenodd" d="M688.225 269.9C679.999 325.391 670.714 354.703 616.517 412.816C562.321 470.929 314.313 509.159 222.625 509.159C130.937 509.159 17.9418 445.191 25.0733 371.074C32.2047 296.957 69.4106 236.379 158.464 228.921C249.473 221.3 329.416 256.592 418.764 237.664C496.011 221.3 519.645 158.927 572.7 139.249C679.999 99.4502 693.821 232.149 688.225 269.9Z" fill="#93E4DB"/>
<path fill-rule="evenodd" clip-rule="evenodd" d="M426.822 499.663C389.577 505.426 407.329 480.935 412.465 450.281C420.904 399.911 431.311 323.366 431.311 323.366C431.311 323.366 438.098 440.002 438.098 468.403C438.098 496.803 431.311 498.969 426.822 499.663Z" fill="#FAFCFC"/>
<path d="M387.026 471.913C387.977 480.024 388.979 488.306 392.789 495.699C390.71 478.959 388.632 462.219 386.553 445.48C386.296 443.412 386.372 440.781 388.474 439.938C390.253 458.84 392.904 477.675 396.42 496.377C396.837 498.597 393.151 499.866 391.081 498.616C389.011 497.365 388.348 494.93 387.878 492.719C384.447 476.603 382.561 460.218 382.247 443.809C377.88 444.587 374.817 448.418 373.934 452.365C373.05 456.312 373.902 460.389 374.753 464.342C377.492 477.066 380.231 489.791 382.97 502.516C384.251 508.467 385.532 514.617 384.118 520.544C378.682 498.089 374.312 475.422 371.023 452.628C329.313 475.705 275.567 479.996 230.034 463.885C220.089 460.367 210.213 455.704 203.645 448.087C198.471 442.086 195.71 434.637 194.263 427.139C189.126 400.513 199.653 373.354 213.942 349.617C219.363 340.61 225.538 331.23 225.1 320.982C224.95 317.453 224.109 313.547 226.386 310.679C226.708 311.21 211.478 212.639 217.588 190.835C232.297 138.345 280.079 131.236 310.673 131.884C331.199 132.318 461.313 155.713 480.113 187.528C504.82 229.342 499.574 264.497 495.186 287.677C493.88 294.58 431.328 322.857 431.311 323C427.735 353.078 403.737 418.617 383.611 442.774C384.749 452.487 385.888 462.2 387.026 471.913Z" fill="#FAFCFC"/>
<path fill-rule="evenodd" clip-rule="evenodd" d="M86.6912 349.527C74.9605 345.29 60.9811 346.547 50.4051 352.788C49.3813 353.393 47.9092 352.719 47.4024 351.714C46.8955 350.709 47.0851 349.539 47.3444 348.459C50.7221 334.396 64.178 323.635 79.1422 318.69C94.1064 313.744 110.475 313.73 126.382 314.576C127.96 314.66 129.61 314.771 130.956 315.52C132.303 316.269 133.208 317.869 132.537 319.162C126.28 331.218 121.566 343.927 118.52 356.954C118.026 359.066 115.607 360.468 113.224 360.644C110.842 360.82 108.507 360.025 106.345 359.104C99.606 356.234 93.6088 352.026 86.6912 349.527Z" fill="#FAFCFC"/>
<path fill-rule="evenodd" clip-rule="evenodd" d="M447.256 137.222C447.839 129.154 447.167 121.013 445.266 113.113L445.225 112.945C444.902 111.609 444.571 110.235 444.868 108.898C445.525 105.942 449.155 104.162 452.487 104.224C455.82 104.286 458.907 105.726 461.856 107.131C475.998 113.872 490.396 120.783 501.531 131.159C501.88 139.56 499.692 147.85 497.532 156.033L497.329 156.802C488.312 191.007 480.927 225.564 475.204 260.345C474.655 263.678 473.615 267.611 470.12 268.778C467.613 269.616 464.699 268.545 462.918 266.743C461.137 264.94 460.285 262.547 459.692 260.189C458.226 254.373 458.05 248.294 459.176 242.416C459.864 238.822 461.028 235.326 462.193 231.828L462.193 231.828L462.193 231.827L462.193 231.826L462.193 231.826L462.194 231.825L462.194 231.824L462.194 231.824C463.239 228.686 464.284 225.547 464.985 222.335C465.687 219.123 466.041 215.857 466.385 212.597C468.21 195.261 469.758 177.901 471.028 160.524C471.208 158.069 471.371 155.536 470.482 153.21C468.901 149.074 464.295 146.459 459.642 145.261C458.841 145.054 458.026 144.878 457.211 144.703C455.316 144.294 453.421 143.885 451.692 143.088C449.22 141.948 447.075 139.727 447.256 137.222ZM455.898 136.559C462.474 137.814 468.901 139.71 475.032 142.203C476.267 142.705 477.565 143.293 478.232 144.358C478.776 145.229 478.808 146.277 478.824 147.277C479.017 159.021 479.058 170.797 477.683 182.477C476.86 189.471 475.532 196.404 474.204 203.336C473.784 205.53 473.364 207.724 472.96 209.92C470.96 220.787 469.35 231.712 468.133 242.674C467.251 250.627 466.605 258.847 469.339 266.448C470.742 266.216 471.282 264.688 471.548 263.42L496.817 142.913C497.43 139.993 498.041 136.974 497.32 134.075C496.057 128.999 491.077 125.47 486.276 122.606C477.034 117.093 467.196 112.398 456.948 108.609C456.096 117.902 455.745 127.234 455.898 136.559ZM468.893 215.702C473.519 194.211 475.609 172.274 475.116 150.384C475.079 148.731 474.981 146.954 473.863 145.645C473.044 144.687 471.793 144.125 470.57 143.63C465.98 141.769 461.154 140.385 456.218 139.513C454.789 139.26 452.689 139.534 452.751 140.85L470.495 147.484C471.535 147.873 472.644 148.313 473.232 149.182C473.809 150.034 473.753 151.104 473.677 152.101L468.893 215.702ZM452.382 106.483C450.919 105.605 448.805 106.51 447.99 107.916C447.176 109.322 447.3 111.006 447.484 112.585C447.755 114.902 448.112 117.22 448.469 119.538C449.459 125.97 450.449 132.404 449.607 138.823C450.949 139.239 452.447 138.384 453.098 137.243C453.749 136.102 453.766 134.763 453.768 133.479L453.813 110.334C453.816 108.919 453.685 107.264 452.382 106.483ZM465.52 265.926C464.714 260.206 464.503 254.418 464.89 248.662C465.097 245.586 465.474 242.522 465.851 239.458L465.851 239.457L465.851 239.456L465.851 239.455L465.851 239.454L465.851 239.453L465.851 239.452L465.852 239.451V239.451V239.451V239.451V239.451V239.45V239.45V239.45C466.351 235.395 466.85 231.342 466.954 227.266C463.269 237.19 461.877 247.806 462.895 258.234C463.159 260.947 463.65 263.792 465.52 265.926ZM467.547 221.404C468.14 221.164 468.389 220.41 468.04 219.914C467.438 220.183 467.182 220.944 467.517 221.47L467.547 221.404ZM462.037 171.702C432.71 155.338 399.549 145.533 366.386 137.073C355.784 134.369 345.095 131.777 334.149 130.668C301.715 127.38 268.835 137.505 241.867 154.135C231.051 160.804 220.616 169.008 215.943 180.07C212.476 188.278 212.5 197.313 212.834 206.095C213.987 236.381 218.283 266.489 222.573 296.543C225.927 295.995 226.258 291.798 225.773 288.746C221.311 260.718 218.81 232.435 218.289 204.122C218.142 196.183 218.188 188.043 221.225 180.593C226.722 167.107 240.9 158.288 254.812 151.347C272.335 142.604 291.383 135.255 311.388 134.865C335.621 134.393 358.59 144.118 379.76 154.799C391.561 160.754 403.527 167.404 411.035 177.569C417.853 186.799 420.33 198.049 422.118 209.031C427.796 243.889 428.004 279.263 428.201 314.497C428.209 315.922 428.112 317.556 426.878 318.442C426.035 319.047 424.882 319.123 423.807 319.174L384.272 321.036C402.694 325.828 423.131 323.938 440.1 315.872L484.029 294.993C488.128 293.044 492.36 290.997 495.186 287.677C499.076 283.109 499.632 276.963 499.816 271.198C500.493 249.909 498.141 228.543 492.834 207.793C494.673 230.239 494.928 252.791 493.597 275.267C493.37 279.105 493.03 283.132 490.723 286.36C488.259 289.807 483.975 291.76 479.894 293.554L432.486 314.402C434.448 281.075 432.926 247.581 427.948 214.512C426.273 203.39 424.137 192.112 418.511 182.107C405.216 158.464 375.79 146.768 348.593 136.858C389.254 147.62 430.379 158.561 466.959 177.896C467.435 175.225 464.583 173.122 462.037 171.702ZM613.545 273.433C615.652 278.348 618.616 283.587 624.062 285.46C625.353 285.55 626.123 284.002 625.7 282.896C625.346 281.972 624.515 281.299 623.698 280.638C623.537 280.507 623.376 280.378 623.22 280.246C619.754 277.333 618.053 273.215 616.377 269.158C616.045 268.356 615.715 267.556 615.372 266.769C613.295 261.999 610.04 257.015 604.596 255.59C601.243 254.713 597.653 255.367 594.268 256.14C575.143 260.506 557.069 268.598 541.632 279.706C534.917 284.539 528.122 291.389 529.724 299.016C530.328 301.896 532.094 304.453 533.874 306.903C537.262 311.564 540.831 316.118 544.572 320.553C546.208 322.492 547.93 324.453 550.242 325.71C554.155 327.838 559.074 327.606 563.578 326.933C586.856 323.451 606.78 310.363 625.738 297.655C626.725 296.994 627.751 296.289 628.262 295.279C628.773 294.269 628.555 292.864 627.471 292.342C626.228 291.745 624.762 292.57 623.653 293.355C606.011 305.852 587.166 318.064 565.292 322.454C561.145 323.286 556.575 323.776 552.844 321.939C550.052 320.565 548.167 318.093 546.387 315.711L535.352 300.939C534.423 299.694 533.459 298.357 533.425 296.856C533.39 295.354 534.732 293.73 536.378 293.924C551.846 295.744 567.387 297.052 582.96 297.845C584.2 297.908 585.497 297.959 586.627 297.492C588.082 296.891 588.969 295.56 589.745 294.294C596.338 283.541 601.374 272.007 604.684 260.08C609.085 262.934 611.138 267.77 613.098 272.384L613.277 272.806C613.366 273.015 613.455 273.224 613.545 273.433ZM599.931 259.136C596.984 269.11 592.624 278.743 586.993 287.723C586.049 289.228 585 290.778 583.35 291.653C581.249 292.765 578.636 292.556 576.217 292.312L537.687 288.422C544.08 280.779 553.576 275.819 563.065 271.557C572.046 267.522 581.267 263.923 590.673 260.781C593.651 259.786 596.775 258.822 599.931 259.136ZM387.026 471.913C387.977 480.024 388.979 488.306 392.789 495.699L386.553 445.48C386.296 443.412 386.372 440.781 388.474 439.938C390.253 458.84 392.904 477.675 396.42 496.377C396.837 498.597 393.151 499.866 391.081 498.616C389.01 497.365 388.348 494.93 387.877 492.719C384.447 476.603 382.561 460.218 382.247 443.809C377.88 444.587 374.817 448.418 373.934 452.365C373.05 456.312 373.902 460.389 374.753 464.342L382.97 502.516C384.251 508.467 385.532 514.617 384.118 520.544C378.682 498.089 374.312 475.422 371.023 452.628C329.312 475.705 275.567 479.996 230.034 463.885C220.089 460.367 210.213 455.704 203.645 448.087C198.47 442.086 195.709 434.637 194.263 427.139C189.126 400.513 199.653 373.354 213.941 349.617C214.304 349.014 214.671 348.41 215.038 347.803L215.051 347.782L215.064 347.76L215.066 347.756C220.18 339.318 225.507 330.526 225.1 320.982C225.073 320.351 225.024 319.708 224.975 319.061C224.748 316.09 224.516 313.034 226.386 310.679C228.894 314.808 229.85 319.693 229.059 324.35C272.241 322.669 315.487 322.33 358.694 323.335C359.198 325.132 356.32 325.967 354.271 325.94C313.949 325.396 273.608 326.017 233.329 327.803C232.054 327.86 230.715 327.935 229.633 328.549C228.496 329.196 227.833 330.33 227.222 331.412C215.79 351.649 204.321 372.18 198.796 394.351C195.954 405.752 194.866 418.23 200.69 428.662C202.899 432.619 206.024 436.114 209.513 439.228C228.243 455.943 256.29 461.067 282.594 460.667C299.382 460.412 316.134 458.229 332.319 454.186C349.477 449.9 366.59 443.144 378.302 431.016C385.18 423.894 389.855 415.269 393.948 406.567C401.765 389.95 407.761 372.633 411.819 354.952C414.36 355.436 414.396 358.686 413.809 360.975C406.554 389.292 398.122 419.476 374.227 438.906C352.645 456.455 322.233 461.897 293.262 463.365C276.527 464.213 259.528 463.948 243.319 460.088C227.109 456.229 211.632 448.507 201.342 436.536C204.343 446.89 214.51 454.28 225.094 459.061C252.884 471.617 285.702 470.953 316.387 466.589C336.828 463.682 357.81 458.91 373.717 446.938C387.315 436.704 395.981 422.089 402.504 407.214C409.724 390.749 414.732 373.492 417.384 355.941C419.035 354.997 420.259 357.638 420.05 359.395C416.474 389.473 403.737 418.617 383.61 442.774L387.026 471.913ZM367.7 523.347C365.927 520.638 364.785 517.592 364.371 514.466L361.823 522.277L355.394 500.092C354.895 498.371 353.681 496.217 351.758 496.587C349.888 496.946 349.678 499.268 349.956 500.979C351.357 509.586 354.029 518.022 357.878 525.994L351.04 520.566C350.707 523.15 351.459 525.837 353.111 527.966C349.55 525.593 344.773 524.784 340.504 525.832C343.554 529.667 347.696 532.785 352.418 534.801L346.641 527.505C351.311 529.944 356.203 532.034 361.252 533.747L356.357 528.193L362.406 529.71C357.777 520.183 353.062 510.293 353.174 499.888C354.926 508.353 357.491 516.68 360.83 524.745C361.395 526.111 362.024 527.525 363.229 528.494C364.435 529.464 366.394 529.83 367.656 528.921C368.638 528.216 368.924 526.998 369.147 525.882L371.871 512.213L374.864 529.164C377.132 523.98 384.511 522.68 390.674 522.645C398.812 522.6 407.012 523.411 415.19 524.22L415.191 524.22H415.191C429.933 525.678 444.606 527.13 458.731 523.543C458.316 525.518 457.591 527.44 456.583 529.233C467.981 527.732 479.514 527.073 491.03 527.265C495.894 527.347 500.772 527.578 505.65 527.81H505.65H505.651H505.651H505.651H505.652H505.652H505.653H505.653C518.549 528.422 531.446 529.035 544.082 526.868L460.22 526.201C461.795 526.118 463.002 524.462 462.465 523.119C461.928 521.777 459.829 521.203 458.56 522.051C457.735 519.678 454.028 518.624 451.851 520.142C453.113 516.621 455.609 513.471 458.89 511.26C455.187 511.08 451.426 512.106 448.45 514.107L457.47 476.336C456.708 475.742 455.436 476.142 454.872 476.896C454.315 477.642 454.252 478.592 454.194 479.492L454.192 479.52C453.347 492.418 448.32 505.068 439.895 515.5L436.587 506.839L431.845 517.184C429.696 515.678 426.647 515.298 424.128 516.222C424.772 518.434 426.727 520.295 429.137 520.988L430.259 518.268L437.667 522.757C434.835 520.073 434.222 515.681 436.226 512.443L440.708 519.247L449.397 503.698C449.446 509.941 446.489 515.842 443.59 521.507C446.741 519.275 449.449 516.533 451.548 513.45C453.574 516.696 451.361 521.049 447.838 522.981C444.314 524.914 439.956 525.018 435.839 524.861C429.559 524.621 423.23 523.907 416.909 523.194H416.909H416.909H416.908H416.908H416.908H416.908H416.907H416.907C402.711 521.593 388.554 519.996 375.069 523.778L373.125 507.556C370.154 512.413 368.296 517.823 367.7 523.347ZM452.308 523.78C452.003 523.45 452.005 522.921 452.312 522.594L452.557 522.678C452.969 521.786 454.701 521.859 455.019 522.782C454.22 523.303 453.282 523.648 452.308 523.78ZM498.124 351.426C488.358 346.959 476.735 348.165 465.893 349.509C462.829 349.889 459.706 350.288 456.931 351.522C454.156 352.756 451.739 354.991 451.261 357.755C424.782 354.764 399.408 344.219 379.648 327.995C375.36 324.473 370.983 319.459 372.912 314.518C373.518 312.965 374.698 311.655 375.925 310.438C385.137 301.299 397.839 295.803 410.204 290.528C396.19 291.64 382.743 297.807 373.468 307.377C371.342 309.57 369.382 312.02 368.65 314.861C366.843 321.876 372.864 328.456 378.891 333.162C398.121 348.178 422.309 357.93 447.508 360.826C449.019 360.999 449.097 362.922 448.959 364.294C448.345 370.399 452.023 376.357 457.121 380.395C462.219 384.433 468.604 386.858 474.941 389.03C494.564 395.754 514.928 400.707 535.632 403.79C537 403.994 538.879 403.898 539.167 402.671C534.389 399.811 528.639 398.722 523.015 397.656C522.712 397.599 522.408 397.541 522.105 397.484C507.849 394.768 493.784 391.231 480.023 386.902C474.377 385.126 468.719 383.186 463.796 380.119C458.874 377.051 454.693 372.718 453.12 367.501C452.342 364.925 453.397 361.08 456.327 361.404C468.255 362.724 480.512 364.027 492.16 361.35C494.796 360.744 497.544 359.83 499.15 357.845C500.757 355.86 500.551 352.536 498.124 351.426ZM468.035 358.558C463.94 357.92 459.757 357.749 455.615 358.051C457.628 354.592 462.543 353.682 466.824 353.154C476.127 352.008 485.816 350.891 494.73 353.559C495.318 353.736 495.947 353.96 496.265 354.442C496.685 355.076 496.379 355.939 495.783 356.444C495.187 356.949 494.375 357.178 493.589 357.377C485.307 359.471 476.509 359.878 468.035 358.558ZM332.535 533.043C339.387 532.87 346.281 534.241 352.423 536.997C350.781 539.132 347.482 539.431 344.61 539.529L269.545 542.107C268.857 542.03 268.727 541.068 269.215 540.622C269.702 540.176 270.464 540.119 271.156 540.089L344.434 536.855C340.201 536.504 336.07 535.18 332.535 533.043ZM188.074 308.43C187.005 313.059 191.333 317.997 196.545 318.347C188.022 329.969 172.669 335.704 157.917 339.753C148.71 342.279 138.497 344.354 129.72 340.789C128.631 341.391 129.793 342.874 130.943 343.375C139.484 347.099 149.611 345.024 158.696 342.571C172.02 338.974 185.754 334.324 194.82 324.786C195.191 324.395 195.561 323.993 195.933 323.588C198.267 321.05 200.7 318.404 204.209 317.817C215.504 315.927 224.911 309.526 234.207 303.202C236.315 301.767 238.418 300.336 240.536 298.963C253.406 290.617 267.682 284.047 282.716 279.55C284.044 279.153 285.659 278.416 285.541 277.155C266.901 278.703 250.607 288.76 235.584 298.863L235.082 299.2C224.872 306.068 214.202 313.244 201.639 314.946C205.743 312.018 204.876 305.251 200.246 303.057C195.616 300.864 189.144 303.802 188.074 308.43ZM191.553 311.259C190.715 309.013 192.008 306.342 194.306 305.205C194.959 304.882 195.688 304.667 196.432 304.667C198.886 304.664 200.678 307.039 200.694 309.26C200.711 311.48 199.467 313.528 198.257 315.46C195.429 315.068 192.468 313.711 191.553 311.259ZM470.481 261.782C469.786 261.082 469.999 260.14 470.221 259.163C470.377 258.473 470.537 257.766 470.383 257.116C470.25 256.552 469.887 256.072 469.522 255.591C469.2 255.165 468.876 254.738 468.71 254.25C468.748 253.606 469.7 253.275 470.349 253.542C470.998 253.81 471.362 254.44 471.588 255.052C472.415 257.284 471.99 259.865 470.481 261.782ZM407.642 212.795C409.379 209.069 412.823 205.765 417.213 205.009C418.634 204.764 418.59 202.645 417.345 201.979C416.1 201.313 414.501 201.706 413.195 202.269C407.113 204.888 403.272 210.654 401.767 216.595C400.263 222.536 400.761 228.723 401.266 234.801L403.956 267.107C404.047 268.205 404.159 269.358 404.835 270.275C406.211 272.141 409.164 272.199 411.639 272.057L424.165 271.337C421.382 269.363 417.645 268.532 414.167 269.113C412.136 269.453 410.095 268.241 409.019 266.646C407.943 265.051 407.628 263.142 407.361 261.288C405.615 249.164 404.974 236.91 405.448 224.691C405.605 220.65 405.905 216.52 407.642 212.795ZM439.626 499.549C438.915 500.016 438.202 498.952 438.098 498.162C433.257 461.347 432.527 424.202 431.803 387.133L431.314 362.143C431.3 361.431 431.311 360.651 431.817 360.106C432.688 359.167 434.518 359.597 435.279 360.611C436.039 361.626 436.04 362.939 436.015 364.165C435.269 400.643 435.759 437.192 439.619 473.509C439.646 473.758 439.672 474.008 439.699 474.258L439.761 474.835C440.646 483.085 441.544 491.459 439.626 499.549ZM399.381 267.485C398.32 266.958 397.013 267.256 395.852 267.567C342.186 281.928 288.642 296.735 235.887 313.636C234.9 313.952 233.77 314.408 233.544 315.334C233.304 316.314 234.324 317.25 235.415 317.432C236.506 317.613 237.61 317.26 238.651 316.914C291.52 299.317 345.185 283.678 399.466 270.048C400.632 269.755 400.441 268.012 399.381 267.485Z" fill="#00160A"/>
<path fill-rule="evenodd" clip-rule="evenodd" d="M85.3067 347.511C74.5498 343.619 61.7308 344.773 52.0328 350.507C51.0939 351.063 49.744 350.444 49.2792 349.52C48.8145 348.597 48.9883 347.522 49.2261 346.531C52.3234 333.611 64.6623 323.725 78.3843 319.182C92.1063 314.639 107.116 314.626 121.702 315.403C123.15 315.48 124.663 315.583 125.897 316.27C127.132 316.958 127.962 318.429 127.347 319.616C121.609 330.692 117.287 342.366 114.494 354.334C114.041 356.275 111.822 357.562 109.637 357.724C107.452 357.886 105.312 357.155 103.329 356.309C97.1494 353.673 91.6501 349.807 85.3067 347.511ZM86.5363 334.439C85.5776 335.143 84.0792 334.771 83.1771 334.008C82.275 333.244 81.761 332.188 81.0519 331.273C77.2486 326.364 68.5206 326.771 63.347 330.516C58.1735 334.262 55.6701 340.18 53.3904 345.808C68.5682 339.844 87.2624 341.984 100.319 351.182C102.102 352.438 103.871 353.853 106.066 354.336C108.261 354.82 111.027 353.951 111.583 351.97C114.553 341.385 118.214 330.959 122.539 320.764C114.24 330.097 96.8117 326.885 86.5363 334.439ZM83.2336 328.798C84.0859 329.767 85.6334 330.024 86.9805 329.806C88.3277 329.587 89.5516 328.98 90.8068 328.486C95.1283 326.787 99.9146 326.408 104.548 325.63C109.181 324.853 113.96 323.538 117.221 320.461C109.862 320.441 102.503 320.421 95.1445 320.401C87.7492 320.381 79.7798 320.523 73.8387 324.507C77.4554 324.627 80.9798 326.237 83.2336 328.798Z" fill="#FFB61D"/>
<path fill-rule="evenodd" clip-rule="evenodd" d="M430.901 346.619C430.884 340.762 430.866 334.906 430.849 329.05C430.844 327.368 430.839 325.686 430.834 324.004C430.831 322.844 431.045 321.393 432.264 321.033C433.185 320.76 434.199 321.359 434.63 322.145C435.061 322.931 435.056 323.846 435.042 324.723C434.907 332.896 434.773 341.069 434.638 349.241C434.619 350.416 434.401 351.863 433.185 352.275C431.156 351.236 430.907 348.728 430.901 346.619H430.901Z" fill="#00160A"/>
<path fill-rule="evenodd" clip-rule="evenodd" d="M417.978 341.199C417.042 341.571 416.558 340.174 416.703 339.258C417.221 335.978 417.741 332.692 418.623 329.476C419.171 327.475 419.962 325.368 421.79 324.136C423.617 322.903 426.755 323.118 427.649 325.016C428.082 325.935 427.902 326.984 427.703 327.967C426.473 334.051 424.816 340.064 422.745 345.959C422.657 346.209 422.561 346.47 422.352 346.651C421.842 347.093 420.923 346.796 420.57 346.243C420.217 345.69 420.263 345.008 420.32 344.372C421.161 344.316 421.553 343.421 421.755 342.68C422.58 339.653 423.406 336.627 424.231 333.6C424.873 331.245 425.459 328.563 423.964 326.549C422.429 327.404 421.853 329.134 421.396 330.712C420.477 333.886 419.558 337.06 418.639 340.234C418.529 340.613 418.376 341.041 417.978 341.199H417.978Z" fill="#00160A"/>
</svg>
