<svg width="26" height="32" viewBox="0 0 26 32" fill="none" xmlns="http://www.w3.org/2000/svg">
<path id="Vector" fill-rule="evenodd" clip-rule="evenodd" d="M7.99995 14.4001C7.5756 14.4001 7.16864 14.5687 6.86858 14.8687C6.56853 15.1688 6.39996 15.5758 6.39996 16.0001C6.39996 16.4244 6.56853 16.8314 6.86858 17.1315C7.16864 17.4315 7.5756 17.6001 7.99995 17.6001H17.5999C18.0242 17.6001 18.4312 17.4315 18.7312 17.1315C19.0313 16.8314 19.1999 16.4244 19.1999 16.0001C19.1999 15.5758 19.0313 15.1688 18.7312 14.8687C18.4312 14.5687 18.0242 14.4001 17.5999 14.4001H7.99995ZM7.99995 19.2001C7.5756 19.2001 7.16864 19.3687 6.86858 19.6687C6.56853 19.9688 6.39996 20.3757 6.39996 20.8001C6.39996 21.2244 6.56853 21.6314 6.86858 21.9314C7.16864 22.2315 7.5756 22.4001 7.99995 22.4001H17.5999C18.0242 22.4001 18.4312 22.2315 18.7312 21.9314C19.0313 21.6314 19.1999 21.2244 19.1999 20.8001C19.1999 20.3757 19.0313 19.9688 18.7312 19.6687C18.4312 19.3687 18.0242 19.2001 17.5999 19.2001H7.99995ZM13.5711 0.000210545C14.6575 -0.00138944 15.6207 -0.00298956 16.5119 0.365008C17.4015 0.733006 18.0815 1.4178 18.8479 2.1858C20.3679 3.71059 21.8895 5.23218 23.4142 6.75057C24.1822 7.51856 24.8654 8.19856 25.235 9.08815C25.603 9.97934 25.603 10.9441 25.5998 12.0289C25.5934 16.0545 25.5998 20.0801 25.5998 24.1057C25.5998 25.5232 25.5998 26.7456 25.4686 27.7248C25.3278 28.7728 25.0094 29.7792 24.1934 30.5936C23.3774 31.4096 22.3727 31.728 21.3247 31.8688C20.3455 32 19.1231 32 17.7055 32H7.89435C6.47676 32 5.25436 32 4.27517 31.8688C3.22718 31.728 2.22079 31.4096 1.40639 30.5936C0.590396 29.7776 0.271998 28.7728 0.131199 27.7248C-3.57626e-07 26.7456 0 25.5232 0 24.1057V7.89456C0 6.47697 -3.57626e-07 5.25458 0.131199 4.27538C0.271998 3.22739 0.590396 2.221 1.40639 1.4066C2.22239 0.590607 3.22718 0.272209 4.27517 0.13141C5.25436 0.00021057 6.47676 0.000210545 7.89435 0.000210545C9.78714 0.000210545 11.6783 0.00341052 13.5711 0.000210545Z" fill="#195964"/>
</svg>
