<svg width="26" height="32" viewBox="0 0 26 32" fill="none" xmlns="http://www.w3.org/2000/svg">
<path id="Vector" fill-rule="evenodd" clip-rule="evenodd" d="M17.5999 12.8001C18.0242 12.8001 18.4312 12.9687 18.7312 13.2688C19.0313 13.5688 19.1999 13.9758 19.1999 14.4001V24.0001C19.1999 24.4244 19.0313 24.8314 18.7312 25.1314C18.4312 25.4315 18.0242 25.6 17.5999 25.6C17.1755 25.6 16.7686 25.4315 16.4685 25.1314C16.1685 24.8314 15.9999 24.4244 15.9999 24.0001V14.4001C15.9999 13.9758 16.1685 13.5688 16.4685 13.2688C16.7686 12.9687 17.1755 12.8001 17.5999 12.8001ZM12.7999 14.4001C13.2243 14.4001 13.6312 14.5687 13.9313 14.8687C14.2313 15.1688 14.3999 15.5758 14.3999 16.0001V24.0001C14.3999 24.4244 14.2313 24.8314 13.9313 25.1314C13.6312 25.4315 13.2243 25.6 12.7999 25.6C12.3756 25.6 11.9686 25.4315 11.6686 25.1314C11.3685 24.8314 11.1999 24.4244 11.1999 24.0001V16.0001C11.1999 15.5758 11.3685 15.1688 11.6686 14.8687C11.9686 14.5687 12.3756 14.4001 12.7999 14.4001ZM9.59994 19.2001C9.59994 18.7757 9.43137 18.3688 9.13131 18.0687C8.83125 17.7687 8.42429 17.6001 7.99995 17.6001C7.5756 17.6001 7.16864 17.7687 6.86858 18.0687C6.56853 18.3688 6.39996 18.7757 6.39996 19.2001V24.0001C6.39996 24.4244 6.56853 24.8314 6.86858 25.1314C7.16864 25.4315 7.5756 25.6 7.99995 25.6C8.42429 25.6 8.83125 25.4315 9.13131 25.1314C9.43137 24.8314 9.59994 24.4244 9.59994 24.0001V19.2001ZM13.5711 0.000210545C14.6575 -0.00138944 15.6207 -0.00298956 16.5119 0.365008C17.4015 0.733006 18.0815 1.4178 18.8479 2.1858C20.3679 3.71059 21.8895 5.23218 23.4142 6.75057C24.1822 7.51856 24.8654 8.19856 25.235 9.08815C25.603 9.97934 25.603 10.9441 25.5998 12.0289C25.5934 16.0545 25.5998 20.0801 25.5998 24.1057C25.5998 25.5232 25.5998 26.7456 25.4686 27.7248C25.3278 28.7728 25.0094 29.7792 24.1934 30.5936C23.3774 31.4096 22.3727 31.728 21.3247 31.8688C20.3455 32 19.1231 32 17.7055 32H7.89435C6.47676 32 5.25436 32 4.27517 31.8688C3.22718 31.728 2.22079 31.4096 1.40639 30.5936C0.590396 29.7776 0.271998 28.7728 0.131199 27.7248C-3.57626e-07 26.7456 0 25.5232 0 24.1057V7.89456C0 6.47697 -3.57626e-07 5.25458 0.131199 4.27538C0.271998 3.22739 0.590396 2.221 1.40639 1.4066C2.22239 0.590607 3.22718 0.272209 4.27517 0.13141C5.25436 0.00021057 6.47676 0.000210545 7.89435 0.000210545C9.78714 0.000210545 11.6783 0.00341052 13.5711 0.000210545Z" fill="#195964"/>
</svg>
