<svg width="318" height="289" viewBox="0 0 318 289" fill="none" xmlns="http://www.w3.org/2000/svg">
<path d="M159.352 0C178.765 0 194.486 15.78 194.486 35.229C194.486 39.7747 193.612 44.1256 192.042 48.1193C200.186 41.3332 210.661 37.2421 222.076 37.2421C248.046 37.2421 269.095 58.3471 269.095 84.3874C269.095 110.428 248.046 131.533 222.076 131.533C196.106 131.533 175.057 110.428 175.057 84.3874C175.057 77.0493 176.725 70.1172 179.704 63.9318C173.956 68.0391 166.929 70.4581 159.336 70.4581C139.923 70.4581 124.201 54.6781 124.201 35.229C124.201 15.78 139.939 0 159.352 0Z" fill="#C2B1FF"/>
<path d="M93.7637 281.697H317.686L317.686 226.44C317.686 182.429 282.098 146.745 238.204 146.745H173.246C129.352 146.745 93.7638 182.429 93.7638 226.44L93.7637 281.697Z" fill="#EDEBFF"/>
<path d="M176.613 145.624L204.737 104.355C200.026 104.063 195.541 101.498 192.966 97.0984C188.854 90.085 191.201 81.0424 198.212 76.9188C205.207 72.7952 214.225 75.1492 218.338 82.1788C218.58 82.6009 218.791 83.023 219.001 83.4451L231.128 65.6357C232.634 63.4278 235.5 62.6486 237.913 63.8012C249.861 69.4833 282.146 88.8837 272.675 129.356C271.962 132.425 268.821 134.276 265.81 133.35L250.396 128.642L242.316 172.93C239.273 189.652 225.17 202.396 208.218 202.964C207.425 202.997 206.631 202.997 205.822 202.997C176.872 202.639 160.277 169.602 176.613 145.624Z" fill="#EDEBFF"/>
<path d="M255.189 85.4412C261.616 91.6915 268.044 97.9581 274.472 104.225C274.569 103.445 274.666 102.666 274.78 101.887C271.833 103.494 268.886 105.118 265.923 106.725C264.256 107.634 265.745 110.215 267.413 109.29C270.36 107.683 273.306 106.059 276.269 104.452C277.095 103.997 277.241 102.764 276.577 102.114C270.149 95.8638 263.721 89.5973 257.293 83.3469C255.917 82.0157 253.812 84.11 255.189 85.4412Z" fill="#DDD1FF"/>
<path d="M202.292 88.3321C204.947 90.2316 207.603 92.131 210.258 94.0467C211.812 95.1669 213.286 92.5856 211.747 91.4816C209.092 89.5822 206.437 87.6827 203.781 85.7671C202.243 84.6469 200.754 87.2282 202.292 88.3321Z" fill="#161324"/>
<path d="M173.392 147.897C174.898 151.436 176.403 154.975 177.909 158.53C178.557 160.073 180.791 158.742 180.144 157.215C178.638 153.676 177.132 150.137 175.626 146.582C174.979 145.056 172.744 146.387 173.392 147.897Z" fill="#161324"/>
<path d="M70.1718 91.1732C75.5148 97.456 86.2495 96.4657 90.5725 89.566C91.5925 87.9425 89.0343 86.4489 88.0143 88.0724C84.6304 93.4623 76.3244 93.8519 72.2604 89.0789C71.0299 87.6178 68.9413 89.7283 70.1718 91.1732Z" fill="#161324"/>
<path d="M73.5545 92.0822C72.664 93.7381 71.7897 95.4103 70.8992 97.0662C70.0087 98.7546 72.5507 100.248 73.4574 98.5598C74.3479 96.9038 75.2222 95.2317 76.1127 93.5758C77.0194 91.8874 74.4612 90.3938 73.5545 92.0822Z" fill="#161324"/>
<path d="M80.486 95.183C80.8908 96.4493 81.2955 97.7318 81.7003 98.9981C82.267 100.816 85.1328 100.037 84.5499 98.2026C84.1452 96.9363 83.7404 95.6538 83.3356 94.3875C82.7689 92.5854 79.9031 93.3647 80.486 95.183Z" fill="#161324"/>
<path d="M87.2205 92.9918C87.9652 94.0146 88.7262 95.0212 89.471 96.0439C89.9405 96.6933 90.7501 97.018 91.4949 96.5797C92.1263 96.2063 92.4987 95.1997 92.0292 94.5504C91.2844 93.5276 90.5234 92.521 89.7786 91.4983C89.3091 90.8489 88.4995 90.5242 87.7548 90.9625C87.1233 91.3359 86.7347 92.3425 87.2205 92.9918Z" fill="#161324"/>
<path d="M223.922 235.564L223.938 282.938H0V235.564V226.44C0 182.428 35.5879 146.745 79.4818 146.745H144.456C188.35 146.745 223.938 182.428 223.938 226.44V235.564H223.922Z" fill="#EDEBFF"/>
<path d="M158.348 0C138.935 0 123.214 15.78 123.214 35.229C123.214 39.7747 124.088 44.1256 125.659 48.1193C117.514 41.3332 107.039 37.2421 95.6242 37.2421C69.6538 37.2421 48.6055 58.3471 48.6055 84.3874C48.6055 110.428 69.6538 131.533 95.6242 131.533C121.595 131.533 142.643 110.428 142.643 84.3874C142.643 77.0493 140.975 70.1172 137.996 63.9318C143.744 68.0391 150.771 70.4581 158.364 70.4581C177.777 70.4581 193.499 54.6781 193.499 35.229C193.483 15.78 177.745 0 158.348 0Z" fill="#C2B1FF"/>
<path d="M141.072 145.624L112.948 104.355C117.66 104.063 122.145 101.498 124.719 97.0984C128.832 90.085 126.484 81.0424 119.473 76.9188C112.479 72.7952 103.46 75.1492 99.3479 82.1788C99.105 82.6009 98.8945 83.023 98.684 83.4451L86.5569 65.6357C85.0512 63.4278 82.1854 62.6486 79.7729 63.8012C67.8239 69.4833 35.539 88.8837 45.0108 129.356C45.7232 132.425 48.8642 134.276 51.8758 133.35L67.2896 128.642L75.3689 172.93C78.4129 189.652 92.5152 202.396 109.467 202.964C110.261 202.997 111.054 202.997 111.864 202.997C140.813 202.639 157.409 169.602 141.072 145.624Z" fill="#EDEBFF"/>
<path d="M60.4094 83.3472C53.9815 89.5975 47.5537 95.8641 41.1258 102.114C40.462 102.764 40.5915 103.998 41.4335 104.452C44.3802 106.059 47.327 107.683 50.29 109.29C51.9576 110.199 53.4634 107.634 51.7795 106.725C48.8328 105.118 45.886 103.494 42.923 101.887C43.0202 102.666 43.1173 103.446 43.2307 104.225C49.6585 97.9583 56.0864 91.708 62.5142 85.4414C63.8742 84.1102 61.7856 82.016 60.4094 83.3472Z" fill="#DDD1FF"/>
<path d="M66.513 110.801C67.3063 112.619 65.0558 114.827 63.2747 114.372C61.429 113.885 60.6356 116.759 62.4814 117.229C66.9825 118.398 70.8522 113.431 69.0549 109.307C68.3264 107.537 65.7682 109.063 66.513 110.801Z" fill="#DDD1FF"/>
<path d="M113.903 85.7671C111.248 87.6665 108.593 89.566 105.937 91.4816C104.399 92.5856 105.873 95.1669 107.427 94.0467C110.082 92.1473 112.738 90.2316 115.393 88.3321C116.931 87.2282 115.458 84.6469 113.903 85.7671Z" fill="#DDD1FF"/>
<path d="M263.509 189.507C260.465 178.922 245.181 183.24 242.201 163.58C241.23 157.2 245.569 147.93 242.671 142.15C236.276 129.341 227.063 132.118 223.922 124.244C221.007 116.971 224.488 101.158 219.356 95.2488C216.15 91.5473 210.321 90.9791 207.277 87.1315C203.035 81.7578 206.581 73.3159 203.343 67.2766C199.91 60.8802 190.876 60.2632 185.549 55.3442C182.878 52.8765 181.307 49.4673 179.089 46.5775C176.871 43.6877 173.471 41.1714 169.892 41.7883C165.974 42.4701 162.703 46.7236 158.882 45.6197C157.603 45.2463 156.567 44.3047 155.466 43.5579C149.314 39.3369 139.761 41.5123 136.021 47.9899C134.223 51.1069 133.705 54.8571 131.698 57.8443C127.763 63.6887 119.166 65.1174 115.604 71.2054C111.426 78.3161 116.154 88.1218 112.22 95.3462C107.962 103.187 95.9641 103.772 91.3658 111.435C86.5571 119.438 92.1916 131.387 85.9904 138.368C82.5579 142.248 76.5834 143.011 73.0861 146.842C66.8202 153.726 72.0337 165.609 67.2574 173.613C63.7439 179.506 55.9398 181.373 51.5035 186.601C45.5776 193.565 47.2938 204.248 51.1473 212.544L200.089 232.382C217.575 227.106 207.601 235.158 223.906 226.424C230.107 223.047 276.219 233.616 263.509 189.507Z" fill="#161324"/>
<path d="M142.062 146.598C140.556 150.138 139.05 153.677 137.544 157.232C136.897 158.758 139.131 160.073 139.779 158.547C141.284 155.008 142.79 151.469 144.296 147.913C144.96 146.387 142.725 145.056 142.062 146.598Z" fill="#161324"/>
<path d="M239.093 83.5433C239.401 86.5791 239.692 89.615 240 92.6509C240.178 94.5341 243.157 94.5503 242.963 92.6509C242.655 89.615 242.364 86.5791 242.056 83.5433C241.862 81.66 238.899 81.6438 239.093 83.5433Z" fill="#DDD1FF"/>
<path d="M233.005 75.3765C237.425 78.4448 241.926 81.367 246.508 84.1756C248.144 85.1659 249.633 82.6009 247.998 81.6106C243.416 78.8182 238.899 75.8798 234.495 72.8114C232.94 71.7237 231.451 74.305 233.005 75.3765Z" fill="#DDD1FF"/>
<path d="M268.268 116.288C263.978 112.603 259.509 108.902 254.15 106.905C250.329 105.476 244.063 104.388 240.97 107.928C233.814 116.126 258.829 122.279 263.168 122.88C265.03 123.139 265.84 120.282 263.962 120.022C259.639 119.422 255.364 118.366 251.349 116.646C249.406 115.801 239.675 111.386 244.257 109.161C247.771 107.473 252.709 109.259 255.898 110.931C259.655 112.895 262.958 115.639 266.164 118.383C267.605 119.633 269.709 117.538 268.268 116.288Z" fill="#DDD1FF"/>
<path d="M268.596 214.708V282.868H44.6738V214.708C44.6738 176.313 75.712 145.192 114.004 145.192H199.266C237.558 145.192 268.596 176.313 268.596 214.708Z" fill="#C2B1FF"/>
<path d="M135.892 115.931L123.878 174.701C118.179 200.367 143.226 222.56 167.691 213.079C168.371 212.819 169.035 212.543 169.698 212.251C183.752 206.05 191.33 190.594 188.286 175.496L175.786 114.081C167.917 110.753 165.294 129.844 156.648 128.156C147.808 125.721 143.129 111.532 135.892 115.931Z" fill="#C2B1FF"/>
<path d="M158.851 49.5969C158.818 50.3762 158.818 51.1392 158.867 51.9022C158.899 51.1554 158.899 50.3762 158.851 49.5969Z" fill="#C2B1FF"/>
<path d="M158.866 51.9019C158.218 65.8149 144.262 74.7277 131.001 75.1985C128.589 82.0657 127.115 89.7771 127.115 97.9756C127.115 127.117 147.775 151.046 158.04 150.738C168.532 150.43 188.965 127.117 188.965 97.9756C188.965 89.4362 187.2 81.3189 184.464 74.1432C182.213 73.9971 179.947 73.7374 177.631 73.3802C167.01 71.5132 159.4 62.7466 158.866 51.9019Z" fill="#C2B1FF"/>
<path d="M158.025 45.2136C149.331 45.5708 137.155 57.6168 130.986 75.1989C144.247 74.7281 158.203 65.8153 158.851 51.9023C158.819 51.1392 158.803 50.3762 158.835 49.5969C158.883 50.3762 158.883 51.1392 158.851 51.9023C159.402 62.747 166.995 71.5136 177.6 73.3644C179.899 73.7215 182.182 73.9813 184.433 74.1274C177.827 56.8376 165.441 44.9052 158.025 45.2136Z" fill="#161324"/>
<path d="M134.79 84.4037C134.79 90.8976 129.544 96.1576 123.068 96.1576C116.592 96.1576 111.346 90.8976 111.346 84.4037C111.346 77.9099 116.592 72.6499 123.068 72.6499C129.544 72.6499 134.79 77.9099 134.79 84.4037Z" fill="#C2B1FF"/>
<path d="M206.613 84.4037C206.613 90.8976 201.367 96.1576 194.89 96.1576C188.414 96.1576 183.168 90.8976 183.168 84.4037C183.168 77.9099 188.414 72.6499 194.89 72.6499C201.367 72.6499 206.613 77.9099 206.613 84.4037Z" fill="#C2B1FF"/>
<path d="M166.589 89.81C171.543 94.9564 181.873 94.9077 186.779 89.7126C188.301 88.0892 185.872 85.6377 184.334 87.2612C180.707 91.0926 172.709 91.1737 169.033 87.3586C167.495 85.7514 165.051 88.2028 166.589 89.81Z" fill="#161324"/>
<path d="M130.825 89.8105C135.779 94.9569 146.109 94.9082 151.015 89.7131C152.537 88.0896 150.108 85.6382 148.57 87.2617C144.944 91.0931 136.945 91.1742 133.27 87.3591C131.732 85.7519 129.287 88.2033 130.825 89.8105Z" fill="#161324"/>
<path d="M169.439 76.8216C174.863 76.8216 180.287 76.8216 185.711 76.8216C187.93 76.8216 187.946 73.3474 185.711 73.3474C180.287 73.3474 174.863 73.3474 169.439 73.3474C167.205 73.3474 167.205 76.8216 169.439 76.8216Z" fill="#161324"/>
<path d="M132.799 76.8214C138.223 76.8214 143.647 76.8214 149.071 76.8214C151.289 76.8214 151.305 73.3472 149.071 73.3472C143.647 73.3472 138.223 73.3472 132.799 73.3472C130.564 73.3472 130.564 76.8214 132.799 76.8214Z" fill="#161324"/>
<path d="M153.168 129.925C156.568 129.925 159.984 129.925 163.384 129.925C165.602 129.925 165.618 126.451 163.384 126.451C159.984 126.451 156.568 126.451 153.168 126.451C150.949 126.451 150.949 129.925 153.168 129.925Z" fill="#161324"/>
<path d="M154.463 80.3942C154.463 90.6382 154.463 100.882 154.463 111.11C154.463 113.334 157.928 113.35 157.928 111.11C157.928 100.866 157.928 90.622 157.928 80.3942C157.928 78.17 154.463 78.17 154.463 80.3942Z" fill="#161324"/>
<path d="M95.9648 213.664C95.9648 224.963 95.9648 276.246 95.9648 287.545C95.9648 289.218 98.5554 289.218 98.5554 287.545C98.5554 276.246 98.5554 224.963 98.5554 213.664C98.5554 211.992 95.9648 211.992 95.9648 213.664Z" fill="#161324"/>
<path d="M220.408 213.663C220.408 224.963 220.408 276.246 220.408 287.545C220.408 289.217 222.999 289.217 222.999 287.545C222.999 276.246 222.999 224.963 222.999 213.663C222.999 211.991 220.408 211.991 220.408 213.663Z" fill="#161324"/>
<path d="M115.684 81.6607C118.21 83.1868 120.719 84.6966 123.245 86.2226C124.686 87.0831 125.982 84.8427 124.557 83.9823C122.031 82.4562 119.521 80.9464 116.996 79.4204C115.555 78.5599 114.259 80.8003 115.684 81.6607Z" fill="#161324"/>
<path d="M192.672 85.7186C195.749 84.3062 198.744 82.7477 201.691 81.043C203.132 80.1988 201.837 77.9584 200.379 78.8026C197.449 80.5073 194.454 82.0658 191.361 83.4782C189.839 84.1763 191.167 86.4167 192.672 85.7186Z" fill="#161324"/>
<path d="M84.6487 162.216C79.9048 155.186 90.3642 149.91 94.8653 146.858C99.593 143.66 101.698 139.374 102.313 133.773C102.928 128.009 101.908 120.801 106.021 116.093C109.356 112.262 115.379 111.304 117.031 106.012C117.322 105.102 115.881 104.713 115.606 105.622C114.57 108.95 111.283 110.395 108.563 112.148C106.296 113.609 104.337 115.33 103.139 117.814C100.581 123.09 101.504 129.276 100.678 134.925C100.192 138.27 99.0426 141.354 96.5329 143.708C93.9748 146.111 90.7042 147.523 87.8707 149.553C83.8392 152.459 80.1314 158.206 83.3534 162.995C83.9039 163.758 85.183 163.011 84.6487 162.216Z" fill="#C2B1FF"/>
<path d="M103.284 157.427C109.209 152.832 112.529 145.673 112.286 138.189C112.253 137.231 110.78 137.231 110.812 138.189C111.055 145.332 107.882 152.02 102.247 156.388C101.47 156.972 102.539 158.011 103.284 157.427Z" fill="#C2B1FF"/>
<path d="M115.068 128.562C115.295 125.656 117.06 123.188 119.667 121.922C120.525 121.5 119.78 120.217 118.922 120.639C115.829 122.149 113.87 125.136 113.595 128.562C113.514 129.52 114.987 129.52 115.068 128.562Z" fill="#C2B1FF"/>
<path d="M204.233 100.962C206.823 102.212 207.309 105.134 207.422 107.748C207.552 110.832 207.357 113.966 207.309 117.05C207.228 121.921 206.985 126.905 210.579 130.655C213.688 133.886 218.497 135.428 220.828 139.405C223.613 144.162 221.152 150.266 223.419 155.283C223.808 156.159 225.087 155.396 224.698 154.536C222.35 149.325 225.087 143.074 221.784 138.123C219.258 134.34 214.692 132.83 211.632 129.616C209.268 127.116 208.766 123.999 208.75 120.654C208.734 117.196 208.863 113.738 208.912 110.28C208.977 106.482 208.928 101.579 204.977 99.6793C204.135 99.2572 203.374 100.54 204.233 100.962Z" fill="#C2B1FF"/>
<path d="M224.779 161.55C225.848 164.148 227.775 166.242 230.349 167.395C231.207 167.784 231.968 166.502 231.094 166.112C228.892 165.122 227.127 163.401 226.204 161.144C225.848 160.284 224.423 160.674 224.779 161.55Z" fill="#C2B1FF"/>
<path d="M214.531 154.895C214.11 151.729 213.706 148.515 212.443 145.544C211.245 142.752 209.302 140.641 207.148 138.547C204.639 136.112 202.259 133.725 201.32 130.235C200.348 126.663 200.785 122.832 201.174 119.212C201.271 118.27 199.798 118.27 199.7 119.212C199.053 125.283 198.794 131.42 202.955 136.355C205.011 138.807 207.683 140.722 209.545 143.352C211.941 146.713 212.524 150.901 213.058 154.895C213.171 155.837 214.645 155.853 214.531 154.895Z" fill="#C2B1FF"/>
<path d="M200.365 110.153C199.96 107.798 198.989 105.688 197.515 103.805C196.933 103.058 195.896 104.113 196.463 104.86C197.758 106.532 198.568 108.464 198.924 110.542C199.102 111.484 200.527 111.094 200.365 110.153Z" fill="#C2B1FF"/>
<path d="M191.022 131.321C191.815 137.182 194.487 142.475 198.713 146.598C199.393 147.264 200.445 146.225 199.765 145.543C195.717 141.582 193.208 136.533 192.463 130.916C192.333 129.99 190.892 130.38 191.022 131.321Z" fill="#C2B1FF"/>
<path d="M122.324 151.583C124.704 146.728 125.854 141.55 125.724 136.143C125.708 135.186 124.219 135.186 124.251 136.143C124.38 141.29 123.328 146.209 121.061 150.836C120.64 151.696 121.903 152.443 122.324 151.583Z" fill="#C2B1FF"/>
<path d="M136.894 67.3086C147.677 68.2664 142.723 50.4571 151.725 49.483C152.664 49.3856 152.68 47.892 151.725 48.0057C148.406 48.3628 146.22 50.863 145.087 53.8664C143.5 58.0549 143.225 66.3995 136.894 65.8312C135.939 65.7501 135.955 67.2274 136.894 67.3086Z" fill="#C2B1FF"/>
<path d="M168.354 50.6692C173.552 48.3963 175.106 56.6922 176.871 59.7118C178.506 62.5042 181.226 64.0627 184.432 64.2575C185.387 64.3224 185.387 62.8289 184.432 62.7802C181.291 62.5853 178.96 60.7995 177.632 57.9747C176.741 56.059 176.207 53.9323 175.009 52.1627C173.325 49.6951 170.459 48.1366 167.593 49.4029C166.735 49.7763 167.496 51.0426 168.354 50.6692Z" fill="#C2B1FF"/>
<path d="M102.182 62.1632L107.64 65.1374C110.965 67.6136 110.52 68.4259 111.279 72.5006L113.19 84.6329C113.268 85.039 113.844 85.039 113.923 84.6329L115.808 72.5661C116.554 68.5045 116.475 67.6136 119.774 65.1243L124.945 62.1501C125.141 62.006 125.141 61.7047 124.945 61.5606L119.093 58.7568C115.821 56.2674 116.017 54.6166 115.271 50.5812L113.923 39.1171C113.844 38.711 113.268 38.711 113.19 39.1171L111.619 51.0005C110.886 55.0227 110.48 56.6867 107.247 59.1891L102.182 61.5606C101.972 61.7178 101.985 62.0191 102.182 62.1632Z" fill="#EDEBFF"/>
<path d="M143.192 185.815L146.787 187.773C148.976 189.404 148.683 189.939 149.183 192.622L150.442 200.612C150.493 200.879 150.873 200.879 150.924 200.612L152.166 192.665C152.657 189.991 152.605 189.404 154.777 187.765L158.182 185.806C158.312 185.711 158.312 185.513 158.182 185.418L154.329 183.572C152.174 181.932 152.303 180.845 151.812 178.188L150.924 170.638C150.873 170.371 150.493 170.371 150.442 170.638L149.407 178.464C148.924 181.113 148.657 182.208 146.528 183.856L143.192 185.418C143.054 185.521 143.063 185.72 143.192 185.815Z" fill="#EDEBFF"/>
</svg>
