<svg width="353" height="253" viewBox="0 0 353 253" fill="none" xmlns="http://www.w3.org/2000/svg">
<path d="M136.018 27.3582C132.501 16.4095 143.243 -0.100178 162.059 3.19137C176.214 5.66869 182.468 17.2064 204.246 17.7088C215.768 17.9687 227.497 12.9447 238.603 15.526C254.872 19.2853 260.988 39.7795 277.274 43.4521C283.026 44.7514 289.159 43.6774 295.102 44.0758C312.67 45.2712 326.461 60.2564 328.142 76.4715C328.679 81.6687 328.229 87.1257 330.36 91.9072C334.293 100.76 345.797 104.71 350.648 113.129C355.343 121.306 352.502 131.995 346.368 139.687C334.241 154.932 309.43 160.059 292.261 150.878C283.321 146.096 276.321 138.023 266.238 135.667C255.097 133.051 243.125 138.145 231.656 136.967C223.374 136.118 215.699 131.839 211.107 125.498C202.029 112.956 204.957 93.8474 192.569 84.0421C185.154 78.1693 173.008 76.4196 169.855 67.8096C167.187 60.5855 137.578 49.2903 136.018 27.3582Z" fill="#191E10"/>
<path d="M140.023 13.4471C144.562 7.03729 151.908 3.01814 159.704 2.29054C163.395 1.94406 167.137 2.32519 170.654 3.52054C174.622 4.8718 177.844 7.45306 181.379 9.61855C184.515 11.5415 187.893 12.9274 191.653 12.7542C195.828 12.5463 199.709 10.7619 203.417 8.97757C212.392 4.66391 221.782 1.07786 231.935 1.64955C241.083 2.18659 249.261 6.15377 255.03 13.2739C257.837 16.7214 260.262 20.5326 263.624 23.495C266.378 25.9204 269.653 27.7567 273.17 28.8654C276.86 30.0434 280.793 30.3899 284.622 29.8529C289.317 29.1946 293.995 27.0637 298.795 27.9299C306.158 29.2465 310.836 36.4013 316.363 40.7669C319.395 43.175 323.085 45.2712 327.087 45.0113C330.31 44.7861 333.307 42.7245 334.26 39.5543C335.074 36.8517 334.052 33.9586 331.349 32.8846C328.976 31.9318 326.134 32.5901 325.025 35.0154C324.61 35.9336 325.961 36.7478 326.394 35.8123C327.191 34.0626 329.166 33.6988 330.83 34.4091C333.706 35.6391 333.324 39.2424 331.523 41.2867C328.161 45.0806 322.652 43.2269 319.065 40.8189C313.591 37.1289 309.744 31.3427 303.888 28.1378C296.698 24.2053 290.062 28.0339 282.595 28.4843C274.071 29.004 266.43 25.0195 261.094 18.5404C258.426 15.3181 256.156 11.7494 253.142 8.82165C250.612 6.36166 247.615 4.40405 244.392 2.98349C237.67 0.0211037 230.202 -0.585234 222.995 0.506173C214.211 1.84011 206.917 5.98053 198.843 9.2894C194.321 11.1431 189.626 11.9226 185.052 9.79179C181.535 8.16334 178.572 5.59941 175.176 3.74575C162.875 -2.94128 146.676 1.3204 138.671 12.6156C138.065 13.4818 139.434 14.2787 140.023 13.4471Z" fill="#191E10"/>
<path d="M297.423 252.24C300.334 252.24 306.693 234.31 307.801 231.607C311.353 223.066 314.177 214.231 316.256 205.24C318.145 197.081 331.693 215.132 332.352 206.522C334.5 178.094 315.892 122.796 287.808 108.625C285.365 107.395 276.477 102.89 261.75 101.349C256.448 100.794 250.402 100.621 243.61 101.123C230.061 102.128 213.619 105.818 194.457 114.515C191.079 113.268 188.567 112.332 187.977 112.141C172.228 107.308 155.804 104.103 139.292 104.502C134.615 104.606 129.867 105.039 125.155 105.801C116.024 107.256 106.998 109.959 98.7852 114.047C86.2241 120.301 75.5516 129.777 69.2624 142.978C54.4143 174.109 64.9136 213.85 73.3339 245.31L117.133 244.41L297.423 252.24Z" fill="#9BB168"/>
<path d="M230.947 100.846L188.707 53.3269C194.355 53.067 199.327 48.9613 200.558 43.0711C202.013 36.0723 197.63 29.1947 190.769 27.7221C183.908 26.2323 177.168 30.7192 175.73 37.7007C175.678 37.9779 175.626 38.2724 175.591 38.5496L174.552 37.3889L153.709 13.811C153.709 13.811 150.348 19.8224 146.865 29.2466C140.005 47.8525 132.693 79.7632 150.053 104.831L167.985 87.6282C167.985 87.6282 174.379 109.855 180.702 131.7C186.628 152.142 210.814 160.146 227.36 147.136C227.586 146.963 227.793 146.789 228.019 146.616C241.706 135.789 242.555 113.978 230.947 100.846Z" fill="#CFD9B5"/>
<path d="M185.57 45.8429C187.961 41.7718 190.37 37.7007 192.847 33.6815C193.384 32.8154 192.016 32.0185 191.478 32.8846C189.001 36.9038 186.61 40.9749 184.202 45.046C183.682 45.9122 185.051 46.7091 185.57 45.8429Z" fill="#191E10"/>
<path d="M167.066 88.6495L181.204 132.548L180.338 74.0281L167.066 88.6495Z" fill="#191E10"/>
<path d="M16.5941 191.485C75.969 156.698 70.5807 124.753 81.7384 110.582C87.2479 103.566 90.1933 100.569 103.933 102.526C114.882 91.699 120.946 83.4701 130.215 68.6235C130.908 67.5321 131.844 66.1462 134.426 65.0548C138.653 63.2704 140.628 68.7275 139.173 73.0931C134.928 85.8608 126.525 97.7624 119.144 105.783C127.894 102.284 137.146 112.609 140.316 116.074C143.487 119.539 147.957 130.99 142.343 143.03C132.243 164.719 107.727 218.735 53.1858 244.808C4.39686 268.126 -17.6933 206.071 16.5941 191.485Z" fill="#CFD9B5"/>
<path d="M95.9979 177.798C104.436 174.091 110.24 164.32 111.47 155.415C112.7 146.494 112.908 134.748 104.609 129.066C104.349 129.516 104.072 129.984 103.812 130.434C109.2 133.726 114.727 136.706 120.444 139.391C120.358 139.027 120.254 138.663 120.167 138.299C118.4 141.348 115.004 143.393 114.086 146.944C113.497 149.231 114.121 151.76 116.39 152.834C118.868 153.995 121.293 152.834 123.338 151.396C126.318 149.283 128.154 147.256 129.887 144.051C131.515 141.019 133.231 137.745 132.815 134.194C132.503 131.474 130.788 129.17 128.969 127.229C123.598 121.547 116.719 118.706 109.356 116.558C108.368 116.281 107.953 117.805 108.94 118.082C114.346 119.659 119.439 121.461 123.961 124.908C128.397 128.286 132.676 132.635 130.718 138.611C129.055 143.687 125.885 148.399 121.137 150.998C119.526 151.881 116.997 152.176 115.853 150.288C114.848 148.607 115.853 146.338 116.875 144.917C118.331 142.873 120.288 141.314 121.571 139.114C121.778 138.767 121.674 138.213 121.293 138.022C115.593 135.337 110.049 132.357 104.661 129.066C103.777 128.529 103.032 129.863 103.864 130.434C107.641 133.016 109.651 137.295 110.17 141.747C110.707 146.32 110.621 151.587 109.824 156.126C108.386 164.268 103.015 173.017 95.2529 176.412C94.2654 176.828 95.0797 178.196 95.9979 177.798Z" fill="#191E10"/>
<path d="M128.553 144.017C132.192 147.551 137.771 146.39 140.595 142.44C144.164 137.468 142.691 130.781 140.352 125.654C138.03 120.56 134.254 116.16 129.68 112.92C127.341 111.275 124.776 109.941 122.074 108.988C120.254 108.33 117.257 107.013 115.421 108.156C114.554 108.693 115.351 110.062 116.218 109.525C117.586 108.676 120.982 110.235 122.368 110.772C124.43 111.569 126.405 112.626 128.259 113.856C131.724 116.177 134.739 119.244 136.991 122.76C139.399 126.537 141.357 131.267 141.149 135.823C140.907 141.28 134.929 147.984 129.68 142.874C128.935 142.181 127.826 143.307 128.553 144.017Z" fill="#191E10"/>
<path d="M104.227 102.491C109.857 103.236 115.419 104.293 120.928 105.644C121.916 105.886 122.349 104.362 121.344 104.119C115.696 102.734 109.979 101.677 104.209 100.897C103.222 100.759 103.222 102.352 104.227 102.491Z" fill="#191E10"/>
<path d="M118.712 151.795C120.15 148.884 122.957 147.048 126.214 146.979C127.237 146.961 127.237 145.368 126.214 145.385C122.437 145.454 119.007 147.585 117.344 150.981C116.893 151.916 118.262 152.713 118.712 151.795Z" fill="#191E10"/>
<path d="M129.835 143.966C132.295 142.164 135.171 143.117 137.718 144.173C138.653 144.572 139.069 143.03 138.134 142.649C135.206 141.419 131.81 140.553 129.02 142.597C128.223 143.186 129.003 144.572 129.835 143.966Z" fill="#191E10"/>
<path d="M88.8932 190.307C90.3833 189.06 91.8733 187.812 93.3633 186.565C94.1429 185.907 93.0168 184.798 92.2371 185.439C90.7471 186.686 89.2571 187.933 87.7671 189.181C86.9874 189.856 88.1136 190.965 88.8932 190.307Z" fill="#191E10"/>
<path d="M91.3015 193.788C93.2419 192.194 95.1824 190.6 97.1229 189.024C97.9198 188.383 96.7937 187.257 95.9967 187.898C94.0562 189.492 92.1158 191.086 90.1753 192.662C89.3956 193.32 90.5218 194.429 91.3015 193.788Z" fill="#191E10"/>
<path d="M128.311 75.5869C132.642 74.4608 135.674 70.3724 135.466 65.9028C135.414 64.8807 133.837 64.8807 133.889 65.9028C134.063 69.6968 131.585 73.1096 127.895 74.0624C126.907 74.3049 127.323 75.8294 128.311 75.5869Z" fill="#191E10"/>
<path d="M88.1483 116.783C89.1358 115.882 90.2273 115.12 91.3882 114.479C92.2718 113.976 91.4748 112.608 90.5912 113.11C89.3091 113.821 88.1309 114.687 87.0394 115.674C86.2771 116.35 87.3859 117.459 88.1483 116.783Z" fill="#191E10"/>
<path d="M98.1792 109.594C99.5826 108.364 101.107 107.342 102.77 106.51C103.671 106.043 102.874 104.674 101.974 105.142C100.189 106.043 98.5604 107.169 97.0704 108.485C96.2907 109.144 97.3996 110.27 98.1792 109.594Z" fill="#191E10"/>
<path d="M139.779 21.4165C138.688 18.0903 136.713 14.3657 132.797 14.0018C129.765 13.7247 127.392 15.6649 127.201 18.714C127.08 20.5849 127.738 22.3866 127.859 24.223C127.963 25.9207 127.755 27.5145 125.85 28.2248C124.533 28.7272 123.233 28.2248 121.951 27.9823C117.36 27.1161 118.729 31.5337 118.122 34.3401C118.382 34.1496 118.625 33.959 118.885 33.7511C117.152 33.5952 115.645 33.9417 114.103 34.7732C113.202 35.2583 113.999 36.6269 114.9 36.1418C116.217 35.4142 117.377 35.2063 118.867 35.3276C119.197 35.3622 119.56 35.0677 119.63 34.7386C119.872 33.6125 119.283 31.0659 119.82 30.217C120.704 28.8311 123.32 30.0438 124.654 29.9918C126.82 29.9052 128.708 28.6752 129.28 26.527C129.973 23.8938 128.466 21.2952 128.76 18.6793C129.038 16.0807 131.428 14.9893 133.767 15.7862C136.28 16.6524 137.475 19.5109 138.22 21.7976C138.567 22.8024 140.091 22.3866 139.779 21.4165Z" fill="#191E10"/>
<path d="M109.495 76.9382L106.601 78.5146C104.851 79.8313 105.076 80.247 104.678 82.3952L103.673 88.805C103.638 89.0129 103.327 89.0129 103.292 88.805L102.304 82.4472C101.906 80.299 101.941 79.8313 100.208 78.5146L97.4705 76.9382C97.3666 76.8515 97.3666 76.6956 97.4705 76.6263L100.555 75.1538C102.287 73.8372 102.183 72.971 102.582 70.8401L103.292 64.7941C103.327 64.5862 103.638 64.5862 103.673 64.7941L104.505 71.0654C104.886 73.1789 105.111 74.0624 106.809 75.379L109.495 76.6263C109.598 76.7129 109.598 76.8689 109.495 76.9382Z" fill="#B4C48D"/>
<path d="M125.954 54.5566L123.06 56.1331C121.31 57.4497 121.535 57.8654 121.137 60.0136L120.132 66.4235C120.097 66.6313 119.786 66.6313 119.751 66.4235L118.763 60.0656C118.365 57.9174 118.4 57.4497 116.667 56.1331L113.93 54.5566C113.826 54.47 113.826 54.314 113.93 54.2447L117.013 52.7722C118.746 51.4556 118.642 50.5894 119.041 48.4586L119.751 42.4125C119.786 42.2046 120.097 42.2046 120.132 42.4125L120.964 48.6838C121.345 50.8146 121.57 51.6808 123.268 52.9974L125.954 54.2447C126.057 54.314 126.057 54.47 125.954 54.5566Z" fill="#B4C48D"/>
<path d="M226.32 61.192L222.976 63.0111C220.949 64.5182 221.209 65.0206 220.759 67.5153L219.598 74.9299C219.546 75.1724 219.199 75.1724 219.147 74.9299L218.004 67.5672C217.536 65.0899 217.588 64.5356 215.578 63.0284L212.425 61.2094C212.304 61.1227 212.304 60.9322 212.425 60.8456L215.994 59.1305C217.986 57.606 217.883 56.6012 218.333 54.1412L219.165 47.1424C219.217 46.8998 219.563 46.8998 219.615 47.1424L220.585 54.4011C221.036 56.8611 221.278 57.8832 223.253 59.4077L226.355 60.8629C226.441 60.9322 226.441 61.1054 226.32 61.192Z" fill="#B4C48D"/>
<path d="M154.056 52.876C156.845 48.4931 162.077 46.3796 167.119 47.5749C168.107 47.8174 168.54 46.2756 167.535 46.0504C161.765 44.6645 155.857 47.0725 152.669 52.0791C152.132 52.9453 153.501 53.7422 154.056 52.876Z" fill="#191E10"/>
<path d="M152.809 29.9736C156.239 29.0208 159.652 29.5925 162.597 31.5674C163.446 32.1391 164.243 30.7705 163.394 30.1988C160.12 27.9987 156.187 27.375 152.375 28.4491C151.405 28.7263 151.821 30.2508 152.809 29.9736Z" fill="#191E10"/>
<path d="M137.908 68.7972C137.96 75.2071 139.086 81.5996 140.888 87.7323C142.534 93.3452 144.735 99.1487 148.269 103.878C148.945 104.779 149.447 105.888 150.625 105.437C151.474 105.108 152.341 103.93 152.982 103.324C156.273 100.223 159.513 97.0698 162.805 93.9862C166.721 90.3135 170.619 86.5196 174.933 83.3147C175.747 82.7083 174.951 81.3397 174.136 81.9461C165.855 88.0787 158.751 95.8052 151.214 102.804C150.868 103.133 150.365 103.774 149.915 103.982C149.343 104.242 150.487 104.103 150.244 103.843C149.759 103.306 149.326 102.665 148.91 102.076C146.779 98.9581 145.202 95.4587 143.92 91.9073C141.235 84.5447 139.554 76.6623 139.485 68.7972C139.485 67.7924 137.891 67.7751 137.908 68.7972Z" fill="#191E10"/>
<path d="M159.097 190.168C159.825 193.2 160.968 197.046 164.208 198.258C167.742 199.592 170.861 196.89 173.165 194.534C172.715 194.343 172.264 194.153 171.814 193.979C171.797 200.736 181.014 201.948 182.729 195.417C182.227 195.417 181.707 195.417 181.204 195.417C182.088 198.587 185.016 200.372 188.239 199.852C189.243 199.696 188.81 198.172 187.823 198.328C185.466 198.709 183.37 197.271 182.729 195.001C182.521 194.257 181.395 194.239 181.204 195.001C179.957 199.714 173.39 198.899 173.408 193.997C173.408 193.321 172.542 192.94 172.056 193.442C169.943 195.59 166.582 198.622 163.567 196.076C161.782 194.586 161.159 191.918 160.639 189.77C160.396 188.765 158.872 189.181 159.097 190.168Z" fill="#9BB168"/>
<path d="M142.846 70.5635C153.813 69.0563 164.503 65.9207 174.396 61.3125C171.762 66.7522 169.094 72.2266 165.126 76.9387C161.159 81.6334 155.701 85.5313 149.325 86.6401L142.846 70.5635Z" fill="white"/>
<path d="M146.397 79.7964C155.094 77.0766 163.739 74.0449 171.415 69.0383C172.264 68.4839 171.467 67.1153 170.618 67.6697C163.046 72.607 154.54 75.5694 145.981 78.2719C144.993 78.5665 145.409 80.1083 146.397 79.7964Z" fill="#191E10"/>
<path d="M240.111 206.73C229.248 197.808 189.901 163.628 175.538 133.172C174.828 131.665 172.593 131.838 172.143 133.449C171.051 137.382 169.96 142.215 169.145 144.693C167.811 148.764 163.064 152.592 159.235 149.387C157.589 148.002 156.809 145.871 157.017 143.757C158.438 129.344 158.317 123.142 167.205 117.945C165.888 117.061 166.339 115.034 167.135 113.683C170.046 108.78 178.588 101.314 184.236 100.24C187.337 99.6505 192.656 99.6851 197.594 100.482C199.344 100.759 202.099 99.0442 200.816 97.8488C160.275 59.9614 178.622 57.1723 182.053 60.9315C196.121 76.3672 216.583 94.9211 220.602 98.1953C230.426 106.251 242.762 119.296 267 140.587C271.21 144.277 307.144 164.494 324.955 183.238C333.548 192.281 336.234 211.424 324.383 227.033C317.47 236.128 287.808 245.916 240.111 206.73Z" fill="#CFD9B5"/>
<path d="M167.431 118.708C172.334 117.062 176.544 120.059 180.182 123.004C183.63 125.793 186.576 129.12 189.001 132.81C189.556 133.658 190.942 132.861 190.37 132.013C187.511 127.664 183.977 123.853 179.801 120.735C175.99 117.876 171.849 115.555 166.998 117.183C166.045 117.495 166.461 119.02 167.431 118.708Z" fill="#191E10"/>
<path d="M173.997 107.706C178.397 106.078 183.803 106.857 187.857 109.127C192.24 111.587 195.342 115.9 198.062 120.006C198.634 120.855 200.002 120.058 199.431 119.209C196.433 114.722 192.968 109.906 188.013 107.429C183.682 105.264 178.189 104.484 173.581 106.182C172.628 106.528 173.044 108.07 173.997 107.706Z" fill="#191E10"/>
<path d="M197.212 101.159C202.444 103.74 207.382 107.776 211.176 112.194C211.835 112.974 212.961 111.848 212.302 111.068C208.439 106.564 203.345 102.406 198.009 99.7728C197.09 99.3397 196.293 100.708 197.212 101.159Z" fill="#191E10"/>
<path d="M222.301 108.121C223.826 106.614 225.333 105.107 226.858 103.6C227.585 102.872 226.459 101.763 225.731 102.474C224.207 103.981 222.699 105.488 221.175 106.995C220.447 107.723 221.573 108.831 222.301 108.121Z" fill="#191E10"/>
<path d="M207.053 124.995C208.613 122.933 210.692 121.391 213.065 120.387C214.001 119.988 213.187 118.62 212.269 119.018C209.618 120.144 207.417 121.911 205.685 124.198C205.078 125.012 206.447 125.809 207.053 124.995Z" fill="#191E10"/>
<path d="M195.446 136.759C196.225 135.165 197.403 133.9 198.945 133.017C199.829 132.514 199.032 131.146 198.148 131.648C196.398 132.653 194.978 134.143 194.094 135.962C193.626 136.863 194.995 137.677 195.446 136.759Z" fill="#191E10"/>
<path d="M157.312 138.057C158.733 140.985 159.166 144.155 158.56 147.36C158.369 148.365 159.894 148.781 160.085 147.776C160.778 144.138 160.31 140.604 158.681 137.26C158.231 136.342 156.862 137.139 157.312 138.057Z" fill="#191E10"/>
<path d="M240.665 206.176C226.025 194.136 212.199 180.901 199.707 166.626C191.738 157.513 184.184 147.812 178.414 137.123C177.583 135.599 176.768 132.567 175.157 131.666C173.632 130.817 172.142 131.666 171.449 133.052C168.972 138.024 170.289 147.483 163.653 149.579C160.413 150.601 157.901 147.552 157.779 144.538C157.71 142.909 158.057 141.194 158.213 139.583C158.507 136.534 158.767 133.468 159.356 130.471C160.413 125.152 162.925 121.428 167.603 118.621C168.036 118.361 168.14 117.738 167.759 117.374C165.108 114.827 172.108 108.764 173.771 107.274C176.456 104.883 179.627 102.423 183.092 101.332C187.528 99.9461 193.02 100.847 197.576 101.263C198.339 101.332 198.529 100.379 198.131 99.9114C192.327 92.8432 186.627 85.6192 181.671 77.9273C179.142 73.9775 176.491 69.7678 175.192 65.2116C174.291 62.024 174.793 58.7498 178.778 59.9624C180.978 60.6208 182.087 62.2146 183.647 63.8603C189.901 70.5647 196.45 77.0265 203.086 83.3497C211.316 91.1801 220.03 98.4389 228.364 106.148C240.648 117.495 252.672 129.068 265.216 140.12C268.3 142.84 271.851 144.936 275.316 147.136C281.294 150.948 287.271 154.794 293.145 158.778C300.3 163.629 307.317 168.687 313.97 174.214C319.635 178.926 325.925 183.95 328.922 190.862C332.37 198.831 332.231 208.099 329.338 216.207C327.553 221.196 324.781 226.619 320.276 229.702C313.398 234.38 304.285 235.003 296.263 234.068C280.982 232.301 266.688 224.851 254.145 216.328C249.536 213.158 245.031 209.745 240.665 206.176C239.886 205.535 238.759 206.644 239.539 207.302C253.625 218.823 269.547 229.425 287.375 233.998C296.887 236.441 307.611 237.221 316.863 233.323C327.467 228.853 332.543 216.571 333.08 205.639C333.444 198.155 331.555 190.186 326.843 184.227C321.818 177.869 314.836 172.672 308.443 167.786C296.35 158.536 283.39 150.636 270.708 142.251C264.349 138.059 258.909 132.376 253.313 127.266C246.937 121.428 240.665 115.486 234.376 109.561C225.783 101.471 216.721 93.9346 208.093 85.8617C201.093 79.3133 194.233 72.6436 187.597 65.714C185.293 63.306 183.231 59.9971 180.008 58.6978C177.028 57.4851 173.424 58.0915 173.13 61.8508C172.905 64.9517 174.464 68.2086 175.798 70.9112C178.934 77.269 183.127 83.1245 187.354 88.7894C190.473 92.9472 193.695 97.001 197.005 101.02C197.195 100.57 197.386 100.119 197.559 99.6689C191.322 99.0972 184.651 98.231 178.986 101.453C175.174 103.619 171.692 106.65 168.833 109.977C166.997 112.107 163.878 115.884 166.598 118.5C166.65 118.084 166.702 117.668 166.754 117.253C163.237 119.366 160.413 122.103 158.906 125.984C157.069 130.748 156.896 136.153 156.411 141.194C156.151 143.914 155.839 146.461 157.537 148.782C159.044 150.844 161.522 151.866 163.999 151.104C169.37 149.475 170.358 143.239 171.536 138.613C171.779 137.678 172.541 132.134 174.776 133.589C175.504 134.057 176.214 136.5 176.647 137.314C178.12 140.086 179.731 142.805 181.429 145.439C184.79 150.67 188.515 155.677 192.431 160.528C200.245 170.212 208.855 179.272 217.795 187.9C224.778 194.621 231.968 201.152 239.452 207.302C240.336 207.943 241.462 206.817 240.665 206.176Z" fill="#191E10"/>
<path d="M142.586 43.037C139.485 50.7115 136.799 59.0097 135.275 67.1346C135.136 67.8622 135.794 68.3126 136.435 68.0354C139.433 66.7535 142.413 65.4715 145.41 64.1895C146.346 63.7911 145.531 62.4225 144.613 62.8209C141.616 64.1029 138.636 65.3849 135.638 66.6668C136.02 66.9613 136.418 67.2558 136.799 67.5677C138.341 59.4428 141.027 51.1446 144.111 43.4701C144.492 42.5 142.967 42.1015 142.586 43.037Z" fill="#191E10"/>
<path d="M175.522 59.7706C176.683 64.2402 181.326 66.2671 185.623 66.3017C186.645 66.3017 186.645 64.7252 185.623 64.7252C182.019 64.7079 178.034 63.1488 177.047 59.3722C176.787 58.3674 175.262 58.7831 175.522 59.7706Z" fill="#191E10"/>
<path d="M152.617 48.8746C153.345 49.3077 153.969 49.8447 154.488 50.5204C154.748 50.8495 155.337 50.7975 155.614 50.5204C155.944 50.1912 155.874 49.7408 155.614 49.3943C155.008 48.6321 154.263 47.9911 153.414 47.506C152.531 47.0036 151.734 48.3722 152.617 48.8746Z" fill="#191E10"/>
<path d="M157.641 45.1496C157.832 45.7559 158.022 46.3449 158.213 46.9513C158.525 47.9214 160.049 47.5056 159.737 46.5355C159.547 45.9292 159.356 45.3401 159.166 44.7338C158.871 43.7637 157.347 44.1794 157.641 45.1496Z" fill="#191E10"/>
<path d="M165.022 45.8427C165.022 45.1151 165.022 44.3875 165.022 43.6772C165.022 42.6551 163.428 42.6551 163.428 43.6772C163.428 44.4048 163.428 45.1324 163.428 45.8427C163.445 46.8475 165.022 46.8648 165.022 45.8427Z" fill="#191E10"/>
</svg>
