<svg width="14" height="14" viewBox="0 0 14 14" fill="none" xmlns="http://www.w3.org/2000/svg">
<g id="hugeicons:new-job" clip-path="url(#clip0_564_5113)">
<g id="Group">
<path id="Vector" d="M6.42108 12.25H5.60324C3.51199 12.25 2.46666 12.25 1.81683 11.588C1.16699 10.9259 1.16699 9.86012 1.16699 7.72921C1.16699 5.59829 1.16699 4.53254 1.81683 3.87046C2.46666 3.20837 3.51199 3.20837 5.60324 3.20837H7.82166C9.91291 3.20837 10.9588 3.20837 11.6087 3.87046C12.1086 4.37971 12.2235 5.12812 12.2503 6.41671" stroke="#195964" stroke-width="1.5" stroke-linecap="round" stroke-linejoin="round"/>
<path id="Vector_2" d="M9.33398 3.20835L9.27565 3.02752C8.9869 2.12919 8.84282 1.68002 8.49923 1.42335C8.15507 1.16669 7.6989 1.16669 6.78482 1.16669H6.6314C5.71848 1.16669 5.26173 1.16669 4.91815 1.42335C4.57398 1.68002 4.4299 2.12919 4.14115 3.02752L4.08398 3.20835M9.98207 7.7321C10.09 7.63294 10.1437 7.58335 10.209 7.58335C10.2743 7.58335 10.328 7.63294 10.4359 7.7321L10.8518 8.11535C10.902 8.16144 10.9271 8.18477 10.958 8.19585C10.9895 8.20752 11.0233 8.20635 11.0922 8.20344L11.6533 8.18127C11.798 8.17544 11.8703 8.1731 11.9199 8.21452C11.9695 8.25594 11.9794 8.32769 11.9987 8.47119L12.0757 9.04635C12.085 9.11285 12.0891 9.14552 12.1054 9.17469C12.1217 9.20269 12.148 9.2231 12.2005 9.26452L12.6532 9.62035C12.7652 9.70902 12.8212 9.75277 12.8322 9.81577C12.8433 9.87877 12.8054 9.93944 12.7307 10.0608L12.4239 10.5549C12.3889 10.6114 12.3714 10.64 12.3656 10.6715C12.3597 10.703 12.3667 10.7363 12.3807 10.8016L12.5027 11.3721C12.5318 11.5121 12.547 11.5821 12.5149 11.6381C12.4828 11.6941 12.4146 11.7163 12.2787 11.7606L11.7385 11.9362C11.6743 11.9572 11.6417 11.9677 11.6166 11.9887C11.5915 12.0103 11.5757 12.0406 11.5448 12.1007L11.2812 12.6088C11.2141 12.7389 11.1802 12.8036 11.119 12.8258C11.0577 12.8479 10.9907 12.8199 10.8553 12.7639L10.3373 12.5493C10.2737 12.523 10.2422 12.5096 10.209 12.5096C10.1757 12.5096 10.1442 12.523 10.0807 12.5493L9.56265 12.7639C9.42732 12.8199 9.36023 12.8479 9.29898 12.8258C9.23773 12.8036 9.2039 12.7383 9.13682 12.6088L8.87315 12.1007C8.84165 12.0406 8.82648 12.0103 8.8014 11.9893C8.77632 11.9683 8.74365 11.9572 8.67948 11.9368L8.13932 11.7606C8.0034 11.7163 7.93515 11.6941 7.90307 11.6381C7.87098 11.5821 7.88557 11.5127 7.91532 11.3721L8.03782 10.8016C8.05123 10.7363 8.05823 10.7036 8.0524 10.6721C8.04044 10.6299 8.02065 10.5903 7.99407 10.5554L7.68782 10.0608C7.61198 9.93944 7.57465 9.87877 7.58573 9.81577C7.59682 9.75277 7.65282 9.70902 7.76482 9.62094L8.21748 9.2651C8.26998 9.2231 8.29623 9.20269 8.31257 9.1741C8.3289 9.14552 8.33298 9.11285 8.34173 9.04577L8.41932 8.47119C8.43857 8.32827 8.44848 8.25594 8.49807 8.21452C8.54765 8.1731 8.61998 8.17544 8.76465 8.18127L9.3264 8.20344C9.39465 8.20635 9.42848 8.20752 9.45998 8.19585C9.4909 8.18419 9.51598 8.16144 9.56615 8.11535L9.98207 7.7321Z" stroke="#195964" stroke-width="1.5" stroke-linecap="round" stroke-linejoin="round"/>
</g>
</g>
<defs>
<clipPath id="clip0_564_5113">
<rect width="14" height="14" fill="white"/>
</clipPath>
</defs>
</svg>
