<svg width="20" height="20" viewBox="0 0 20 20" fill="none" xmlns="http://www.w3.org/2000/svg">
<g id="material-symbols-light:nights-stay">
<path id="Vector" d="M5.00012 12.3083C5.53901 12.3083 6.03262 12.4538 6.48095 12.745C6.92984 13.0366 7.25956 13.4311 7.47012 13.9283L7.83845 14.8075H8.79178C9.18289 14.8075 9.51401 14.9483 9.78512 15.2299C10.0562 15.5116 10.1921 15.8516 10.1926 16.25C10.1926 16.6516 10.0526 16.9925 9.77262 17.2725C9.49262 17.5525 9.15178 17.6925 8.75012 17.6925H5.00012C4.25456 17.6925 3.61956 17.43 3.09512 16.905C2.57067 16.38 2.30817 15.745 2.30762 15C2.30762 14.2405 2.57012 13.6019 3.09512 13.0841C3.62012 12.5663 4.25512 12.3075 5.00012 12.3075M8.43012 3.63745C8.37234 4.93745 8.57151 6.18773 9.02762 7.38828C9.48317 8.58884 10.1721 9.64995 11.0943 10.5716C12.0165 11.4938 13.0776 12.183 14.2776 12.6391C15.4776 13.0952 16.7282 13.2944 18.0293 13.2366C17.5293 14.7605 16.6371 15.983 15.3526 16.9041C14.0687 17.8263 12.6312 18.3027 11.0401 18.3333C11.3029 18.0466 11.5051 17.7247 11.6468 17.3675C11.7885 17.0102 11.8593 16.6377 11.8593 16.25C11.8593 15.4122 11.5773 14.695 11.0134 14.0983C10.4496 13.5016 9.7629 13.1927 8.95345 13.1716C8.59456 12.4011 8.05901 11.7866 7.34678 11.3283C6.63456 10.87 5.85234 10.6411 5.00012 10.6416C4.71567 10.6416 4.43401 10.6705 4.15512 10.7283C3.87567 10.7861 3.60178 10.8727 3.33345 10.9883V10.7316C3.34012 9.11273 3.80956 7.6544 4.74178 6.35662C5.67345 5.05828 6.90289 4.15245 8.43012 3.63912" fill="#FFC700"/>
</g>
</svg>
