<svg width="20" height="20" viewBox="0 0 20 20" fill="none" xmlns="http://www.w3.org/2000/svg">
<g id="tabler:mood-share">
<g id="Group">
<path id="Vector" d="M17.4519 10.8483C17.6238 9.3385 17.3329 7.81207 16.618 6.47119C15.903 5.13031 14.7976 4.03825 13.4481 3.33962C12.0986 2.641 10.5688 2.36878 9.06112 2.55901C7.55348 2.74923 6.1392 3.39294 5.00555 4.40487C3.87191 5.41681 3.0724 6.74923 2.7129 8.22569C2.35341 9.70214 2.45088 11.253 2.99242 12.6728C3.53395 14.0926 4.49401 15.3144 5.74543 16.1765C6.99686 17.0385 8.48061 17.5 10.0002 17.5M7.5002 8.33334H7.50854M12.5002 8.33334H12.5085" stroke="#195964" stroke-width="2" stroke-linecap="round" stroke-linejoin="round"/>
<path id="Vector_2" d="M7.91699 12.5C8.46533 13.06 9.21699 13.3333 10.0003 13.3333C10.1781 13.3333 10.3531 13.3194 10.5253 13.2917M13.3337 18.3333L17.5003 14.1667M17.5003 14.1667V17.9167M17.5003 14.1667H13.7503" stroke="#195964" stroke-width="2" stroke-linecap="round" stroke-linejoin="round"/>
</g>
</g>
</svg>
