<svg width="25" height="25" viewBox="0 0 25 25" fill="none" xmlns="http://www.w3.org/2000/svg">
<g id="typcn:arrow-up-outline">
<path id="Vector" d="M3.09741 12.0239C3.11075 10.3699 4.46757 9.03481 6.12152 9.04816L10.8854 9.0866C9.87062 7.93537 9.9308 6.0538 11.0336 4.96666C11.601 4.4093 12.3663 4.09986 13.1616 4.10627C13.9569 4.11269 14.7172 4.43444 15.2755 5.00089L22.3388 12.1791L15.1606 19.2424C14.5932 19.7998 13.8278 20.1092 13.0325 20.1028C12.2372 20.0964 11.477 19.7746 10.9187 19.2082C9.83255 18.1054 9.80277 16.2201 10.8369 15.0864L6.0731 15.048C4.41916 15.0346 3.08406 13.6778 3.09741 12.0239ZM15.6911 11.1254L6.10538 11.0481C5.84781 11.0575 5.60381 11.166 5.42419 11.3508C5.24456 11.5356 5.14315 11.7826 5.14107 12.0403C5.13899 12.2981 5.2364 12.5467 5.41302 12.7344C5.58964 12.9221 5.83186 13.0344 6.08924 13.048L15.6749 13.1254L12.3555 16.3917C12.1719 16.5806 12.0683 16.833 12.0661 17.0964C12.064 17.3598 12.1636 17.6138 12.3441 17.8057C12.4361 17.8993 12.5457 17.974 12.6666 18.0253C12.7875 18.0765 12.9173 18.1035 13.0487 18.1046C13.18 18.1056 13.3102 18.0808 13.432 18.0314C13.5537 17.9821 13.6645 17.9093 13.758 17.8171L19.5109 12.1563L13.8501 6.40344C13.7581 6.30974 13.6485 6.23512 13.5276 6.18383C13.4067 6.13254 13.2768 6.1056 13.1455 6.10454C13.0142 6.10348 12.8839 6.12833 12.7622 6.17766C12.6405 6.22699 12.5297 6.29983 12.4362 6.39203C12.2526 6.58092 12.149 6.83333 12.1468 7.09671C12.1447 7.3601 12.2443 7.61415 12.4247 7.80598L15.6911 11.1254Z" fill="white"/>
</g>
</svg>
