<svg width="20" height="20" viewBox="0 0 20 20" fill="none" xmlns="http://www.w3.org/2000/svg">
<path id="Vector" d="M7.21717 20C7.05967 20 6.90862 19.9306 6.79725 19.8072C6.68588 19.6837 6.62332 19.5163 6.62332 19.3417C6.62332 19.1671 6.68588 18.9996 6.79725 18.8762C6.90862 18.7527 7.05967 18.6833 7.21717 18.6833H12.7836C12.9411 18.6833 13.0921 18.7527 13.2035 18.8762C13.3149 18.9996 13.3774 19.1671 13.3774 19.3417C13.3774 19.5163 13.3149 19.6837 13.2035 19.8072C13.0921 19.9306 12.9411 20 12.7836 20H7.21717ZM1.8244 17.1867C1.6669 17.1867 1.51585 17.1173 1.40448 16.9938C1.29312 16.8704 1.23055 16.7029 1.23055 16.5283C1.23055 16.3537 1.29312 16.1863 1.40448 16.0628C1.51585 15.9394 1.6669 15.87 1.8244 15.87H18.1771C18.3346 15.87 18.4856 15.9394 18.597 16.0628C18.7084 16.1863 18.771 16.3537 18.771 16.5283C18.771 16.7029 18.7084 16.8704 18.597 16.9938C18.4856 17.1173 18.3346 17.1867 18.1771 17.1867H1.8244ZM4.84101 14.3767C4.68351 14.3767 4.53247 14.3073 4.4211 14.1838C4.30973 14.0604 4.24716 13.8929 4.24716 13.7183C4.24716 13.5437 4.30973 13.3763 4.4211 13.2528C4.53247 13.1294 4.68351 13.06 4.84101 13.06H15.1597C15.3172 13.06 15.4683 13.1294 15.5797 13.2528C15.691 13.3763 15.7536 13.5437 15.7536 13.7183C15.7536 13.8929 15.691 14.0604 15.5797 14.1838C15.4683 14.3073 15.3172 14.3767 15.1597 14.3767H4.84101ZM14.1419 11.7475H5.85958C5.70208 11.7475 5.55103 11.6781 5.43966 11.5547C5.3283 11.4312 5.26573 11.2638 5.26573 11.0892V11.0425C5.25985 9.65033 5.75307 8.3126 6.6369 7.32358C7.52074 6.33456 8.72277 5.77527 9.97858 5.76875C11.2344 5.76223 12.4411 6.30901 13.3332 7.28881C14.2254 8.26861 14.7299 9.60117 14.7358 10.9933V10.9958C14.7392 11.0246 14.7409 11.0535 14.741 11.0825V11.09C14.741 11.2646 14.6785 11.4321 14.5671 11.5555C14.4557 11.679 14.3047 11.7483 14.1472 11.7483L14.1419 11.7475ZM6.50304 10.4283H13.4977C13.1978 8.56333 11.7462 7.16583 10 7.16583C8.25378 7.16583 6.80222 8.56333 6.50605 10.405L6.50304 10.4292V10.4283ZM16.9466 11.7475C16.7891 11.7475 16.638 11.6781 16.5266 11.5547C16.4153 11.4312 16.3527 11.2638 16.3527 11.0892C16.3527 10.9146 16.4153 10.7471 16.5266 10.6237C16.638 10.5002 16.7891 10.4308 16.9466 10.4308H19.4061C19.5636 10.4308 19.7147 10.5002 19.8261 10.6237C19.9374 10.7471 20 10.9146 20 11.0892C20 11.2638 19.9374 11.4312 19.8261 11.5547C19.7147 11.6781 19.5636 11.7475 19.4061 11.7475H16.9466ZM0.593851 11.7475C0.436352 11.7475 0.285304 11.6781 0.173935 11.5547C0.0625663 11.4312 0 11.2638 0 11.0892C0 10.9146 0.0625663 10.7471 0.173935 10.6237C0.285304 10.5002 0.436352 10.4308 0.593851 10.4308H3.05345C3.21095 10.4308 3.36199 10.5002 3.47336 10.6237C3.58473 10.7471 3.6473 10.9146 3.6473 11.0892C3.6473 11.2638 3.58473 11.4312 3.47336 11.5547C3.36199 11.6781 3.21095 11.7475 3.05345 11.7475H0.593851ZM14.4922 6.10917C14.4367 6.04819 14.3927 5.97563 14.3626 5.89568C14.3325 5.81572 14.3171 5.72996 14.3171 5.64333C14.3171 5.55671 14.3325 5.47094 14.3626 5.39099C14.3927 5.31103 14.4367 5.23847 14.4922 5.1775L16.2309 3.24917C16.2843 3.18091 16.3498 3.12556 16.4233 3.08656C16.4967 3.04756 16.5767 3.02574 16.6581 3.02246C16.7395 3.01919 16.8207 3.03452 16.8966 3.06751C16.9724 3.1005 17.0413 3.15044 17.099 3.21423C17.1567 3.27801 17.2019 3.35427 17.2319 3.43827C17.2619 3.52227 17.2759 3.6122 17.2732 3.70248C17.2704 3.79276 17.251 3.88144 17.216 3.96302C17.181 4.0446 17.1313 4.11732 17.0698 4.17667L17.0691 4.1775L15.3304 6.10583C15.2229 6.225 15.0748 6.29833 14.9102 6.29833C14.7455 6.29833 14.5975 6.225 14.49 6.10583L14.4922 6.10917ZM4.66812 6.10917L2.92866 4.17833C2.84523 4.08631 2.78836 3.96887 2.76524 3.84094C2.74213 3.71301 2.75383 3.58035 2.79886 3.4598C2.84388 3.33926 2.92021 3.23626 3.01813 3.16389C3.11606 3.09152 3.23118 3.05304 3.34887 3.05333C3.51274 3.05333 3.66158 3.12667 3.76907 3.24667L5.50853 5.175C5.56556 5.2356 5.6111 5.30821 5.6425 5.38857C5.6739 5.46893 5.69052 5.55542 5.69139 5.64299C5.69226 5.73056 5.67736 5.81744 5.64756 5.89855C5.61777 5.97965 5.57367 6.05335 5.51786 6.11533C5.46206 6.17731 5.39565 6.22632 5.32255 6.2595C5.24944 6.29267 5.17109 6.30935 5.0921 6.30854C5.01311 6.30773 4.93506 6.28946 4.86251 6.2548C4.78997 6.22014 4.72439 6.16978 4.66962 6.10667L4.66812 6.10917ZM9.40615 3.38917V0.658333C9.40615 0.483732 9.46871 0.316283 9.58008 0.192821C9.69145 0.0693599 9.8425 0 10 0C10.1575 0 10.3085 0.0693599 10.4199 0.192821C10.5313 0.316283 10.5939 0.483732 10.5939 0.658333V3.38583C10.5939 3.56043 10.5313 3.72788 10.4199 3.85135C10.3085 3.97481 10.1575 4.04417 10 4.04417C9.8425 4.04417 9.69145 3.97481 9.58008 3.85135C9.46871 3.72788 9.40615 3.56043 9.40615 3.38583V3.38917Z" fill="#FFC700"/>
</svg>
